%TF.GenerationSoftware,KiCad,Pcbnew,7.0.7*%
%TF.CreationDate,2023-12-01T17:39:10+08:00*%
%TF.ProjectId,Adafruit LED Sequin-WithRails,41646166-7275-4697-9420-4c4544205365,rev?*%
%TF.SameCoordinates,Original*%
%TF.FileFunction,Soldermask,Bot*%
%TF.FilePolarity,Negative*%
%FSLAX46Y46*%
G04 Gerber Fmt 4.6, Leading zero omitted, Abs format (unit mm)*
G04 Created by KiCad (PCBNEW 7.0.7) date 2023-12-01 17:39:10*
%MOMM*%
%LPD*%
G01*
G04 APERTURE LIST*
%ADD10C,0.500000*%
G04 APERTURE END LIST*
D10*
%TO.C,REF\u002A\u002A*%
X54463268Y-62199988D03*
%TD*%
%TO.C,REF\u002A\u002A*%
X54363268Y-48999988D03*
%TD*%
%TO.C,REF\u002A\u002A*%
X45536715Y-57599988D03*
%TD*%
%TO.C,REF\u002A\u002A*%
X54363279Y-50999988D03*
%TD*%
%TO.C,REF\u002A\u002A*%
X45401002Y-63199987D03*
%TD*%
%TO.C,REF\u002A\u002A*%
X54499005Y-49999987D03*
%TD*%
%TO.C,REF\u002A\u002A*%
X54563279Y-70799988D03*
%TD*%
%TO.C,REF\u002A\u002A*%
X54463279Y-64199988D03*
%TD*%
%TO.C,REF\u002A\u002A*%
X54463274Y-57599988D03*
%TD*%
%TO.C,REF\u002A\u002A*%
X45636731Y-68799988D03*
%TD*%
%TO.C,REF\u002A\u002A*%
X45636720Y-70799988D03*
%TD*%
%TO.C,REF\u002A\u002A*%
X45536731Y-62199988D03*
%TD*%
%TO.C,REF\u002A\u002A*%
X45501002Y-69799987D03*
%TD*%
%TO.C,REF\u002A\u002A*%
X54599005Y-63199987D03*
%TD*%
%TO.C,REF\u002A\u002A*%
X54463263Y-55599988D03*
%TD*%
%TO.C,REF\u002A\u002A*%
X54563268Y-68799988D03*
%TD*%
%TO.C,REF\u002A\u002A*%
X45436731Y-48999988D03*
%TD*%
%TO.C,REF\u002A\u002A*%
X45400997Y-56599987D03*
%TD*%
%TO.C,REF\u002A\u002A*%
X45436720Y-50999988D03*
%TD*%
%TO.C,REF\u002A\u002A*%
X54599000Y-56599987D03*
%TD*%
%TO.C,REF\u002A\u002A*%
X45536726Y-55599988D03*
%TD*%
%TO.C,REF\u002A\u002A*%
X45536720Y-64199988D03*
%TD*%
%TO.C,REF\u002A\u002A*%
X45301002Y-49999987D03*
%TD*%
%TO.C,REF\u002A\u002A*%
X54699005Y-69799987D03*
%TD*%
G36*
X47142120Y-68019023D02*
G01*
X47188613Y-68072678D01*
X47200000Y-68125021D01*
X47200000Y-71475000D01*
X47179998Y-71543121D01*
X47126342Y-71589614D01*
X47074000Y-71601000D01*
X46799999Y-71601000D01*
X46728355Y-71599145D01*
X46725044Y-71598972D01*
X46655218Y-71593478D01*
X46651936Y-71593133D01*
X46582437Y-71583984D01*
X46579178Y-71583468D01*
X46510351Y-71570710D01*
X46507127Y-71570025D01*
X46439029Y-71553678D01*
X46435842Y-71552825D01*
X46368672Y-71532929D01*
X46365532Y-71531909D01*
X46299446Y-71508506D01*
X46296366Y-71507323D01*
X46231658Y-71480519D01*
X46228646Y-71479178D01*
X46165474Y-71449047D01*
X46162535Y-71447550D01*
X46100958Y-71414118D01*
X46098101Y-71412468D01*
X46038334Y-71375843D01*
X46035567Y-71374046D01*
X45977861Y-71334384D01*
X45975192Y-71332445D01*
X45919635Y-71289814D01*
X45917073Y-71287739D01*
X45863814Y-71242254D01*
X45861364Y-71240047D01*
X45810563Y-71191843D01*
X45808228Y-71189508D01*
X45759961Y-71138644D01*
X45757754Y-71136192D01*
X45712271Y-71082938D01*
X45710195Y-71080374D01*
X45667550Y-71024796D01*
X45665612Y-71022128D01*
X45625965Y-70964441D01*
X45624168Y-70961674D01*
X45587549Y-70901917D01*
X45585899Y-70899060D01*
X45552484Y-70837518D01*
X45550987Y-70834580D01*
X45534498Y-70800011D01*
X45326000Y-70800011D01*
X45257879Y-70780009D01*
X45211386Y-70726353D01*
X45200000Y-70674011D01*
X45200000Y-68926011D01*
X45220002Y-68857890D01*
X45273658Y-68811397D01*
X45326000Y-68800011D01*
X45534509Y-68800011D01*
X45550987Y-68765465D01*
X45552484Y-68762526D01*
X45585899Y-68700984D01*
X45587549Y-68698127D01*
X45624168Y-68638370D01*
X45625965Y-68635603D01*
X45665612Y-68577916D01*
X45667550Y-68575248D01*
X45710195Y-68519670D01*
X45712271Y-68517106D01*
X45757754Y-68463852D01*
X45759961Y-68461400D01*
X45808228Y-68410536D01*
X45810563Y-68408201D01*
X45861364Y-68359997D01*
X45863814Y-68357790D01*
X45917073Y-68312305D01*
X45919635Y-68310230D01*
X45975183Y-68267606D01*
X45977853Y-68265666D01*
X46035614Y-68225968D01*
X46038382Y-68224171D01*
X46098108Y-68187573D01*
X46100964Y-68185924D01*
X46162534Y-68152495D01*
X46165473Y-68150997D01*
X46228642Y-68120867D01*
X46231656Y-68119526D01*
X46296412Y-68092702D01*
X46299493Y-68091520D01*
X46365488Y-68068150D01*
X46368624Y-68067131D01*
X46435780Y-68047237D01*
X46438968Y-68046383D01*
X46507130Y-68030018D01*
X46510358Y-68029332D01*
X46579244Y-68016566D01*
X46582503Y-68016050D01*
X46651929Y-68006911D01*
X46655208Y-68006567D01*
X46725005Y-68001073D01*
X46728300Y-68000900D01*
X46799994Y-67999023D01*
X47073999Y-67999021D01*
X47142120Y-68019023D01*
G37*
G36*
X47042120Y-61419015D02*
G01*
X47088613Y-61472670D01*
X47100000Y-61525013D01*
X47100000Y-64875000D01*
X47079998Y-64943121D01*
X47026342Y-64989614D01*
X46974000Y-65001000D01*
X46800000Y-65001000D01*
X46728363Y-64999137D01*
X46725059Y-64998965D01*
X46655214Y-64993469D01*
X46651932Y-64993125D01*
X46582494Y-64983984D01*
X46579235Y-64983468D01*
X46510309Y-64970692D01*
X46507084Y-64970007D01*
X46439019Y-64953667D01*
X46435833Y-64952813D01*
X46368659Y-64932916D01*
X46365521Y-64931897D01*
X46299510Y-64908522D01*
X46296431Y-64907339D01*
X46231656Y-64880510D01*
X46228641Y-64879167D01*
X46165421Y-64849011D01*
X46162482Y-64847514D01*
X46100915Y-64814084D01*
X46098059Y-64812435D01*
X46038344Y-64775840D01*
X46035578Y-64774044D01*
X45977896Y-64734400D01*
X45975228Y-64732461D01*
X45919601Y-64689779D01*
X45917035Y-64687701D01*
X45863778Y-64642211D01*
X45861327Y-64640005D01*
X45810517Y-64591787D01*
X45808184Y-64589454D01*
X45760001Y-64538679D01*
X45757795Y-64536229D01*
X45712307Y-64482973D01*
X45710229Y-64480407D01*
X45667545Y-64424780D01*
X45665605Y-64422109D01*
X45625941Y-64364393D01*
X45624145Y-64361627D01*
X45587546Y-64301902D01*
X45585897Y-64299046D01*
X45552494Y-64237524D01*
X45550996Y-64234586D01*
X45534501Y-64200006D01*
X45226000Y-64200006D01*
X45157879Y-64180004D01*
X45111386Y-64126348D01*
X45100000Y-64074006D01*
X45100000Y-62326006D01*
X45120002Y-62257885D01*
X45173658Y-62211392D01*
X45226000Y-62200006D01*
X45534507Y-62200006D01*
X45550987Y-62165456D01*
X45552485Y-62162516D01*
X45585898Y-62100980D01*
X45587546Y-62098124D01*
X45624145Y-62038399D01*
X45625941Y-62035633D01*
X45665605Y-61977917D01*
X45667545Y-61975246D01*
X45710229Y-61919619D01*
X45712307Y-61917053D01*
X45757796Y-61863797D01*
X45760002Y-61861346D01*
X45808220Y-61810536D01*
X45810553Y-61808203D01*
X45861328Y-61760020D01*
X45863778Y-61757814D01*
X45917035Y-61712325D01*
X45919601Y-61710247D01*
X45975228Y-61667565D01*
X45977896Y-61665626D01*
X46035578Y-61625982D01*
X46038344Y-61624186D01*
X46098059Y-61587591D01*
X46100915Y-61585942D01*
X46162482Y-61552512D01*
X46165421Y-61551015D01*
X46228641Y-61520859D01*
X46231656Y-61519516D01*
X46296431Y-61492687D01*
X46299510Y-61491504D01*
X46365521Y-61468129D01*
X46368659Y-61467110D01*
X46435833Y-61447213D01*
X46439019Y-61446359D01*
X46507084Y-61430019D01*
X46510309Y-61429334D01*
X46579235Y-61416558D01*
X46582494Y-61416042D01*
X46651932Y-61406901D01*
X46655214Y-61406557D01*
X46725054Y-61401062D01*
X46728348Y-61400889D01*
X46799994Y-61399014D01*
X46973999Y-61399013D01*
X47042120Y-61419015D01*
G37*
G36*
X53271652Y-68000899D02*
G01*
X53274925Y-68001071D01*
X53344770Y-68006566D01*
X53348052Y-68006911D01*
X53417543Y-68016059D01*
X53420802Y-68016576D01*
X53489690Y-68029345D01*
X53492916Y-68030031D01*
X53561011Y-68046380D01*
X53564197Y-68047234D01*
X53631364Y-68067131D01*
X53634500Y-68068150D01*
X53700495Y-68091520D01*
X53703576Y-68092702D01*
X53768333Y-68119526D01*
X53771348Y-68120868D01*
X53834567Y-68151024D01*
X53837506Y-68152521D01*
X53899073Y-68185951D01*
X53901929Y-68187600D01*
X53961644Y-68224195D01*
X53964410Y-68225991D01*
X54022100Y-68265640D01*
X54024768Y-68267578D01*
X54080337Y-68310217D01*
X54082902Y-68312294D01*
X54136212Y-68357826D01*
X54138664Y-68360033D01*
X54189479Y-68408255D01*
X54191813Y-68410589D01*
X54240019Y-68461392D01*
X54242225Y-68463842D01*
X54287716Y-68517106D01*
X54289793Y-68519670D01*
X54332438Y-68575248D01*
X54334376Y-68577916D01*
X54374023Y-68635603D01*
X54375820Y-68638370D01*
X54412440Y-68698130D01*
X54414090Y-68700987D01*
X54447525Y-68762569D01*
X54449022Y-68765508D01*
X54465478Y-68800009D01*
X54465480Y-68800011D01*
X54874000Y-68800011D01*
X54942121Y-68820013D01*
X54988614Y-68873669D01*
X55000000Y-68926011D01*
X55000000Y-70674011D01*
X54979998Y-70742132D01*
X54926342Y-70788625D01*
X54874000Y-70800011D01*
X54465490Y-70800011D01*
X54449000Y-70834581D01*
X54447503Y-70837519D01*
X54414090Y-70899055D01*
X54412442Y-70901911D01*
X54375843Y-70961636D01*
X54374047Y-70964402D01*
X54334383Y-71022118D01*
X54332443Y-71024789D01*
X54289759Y-71080416D01*
X54287681Y-71082982D01*
X54242192Y-71136238D01*
X54239986Y-71138689D01*
X54191768Y-71189499D01*
X54189436Y-71191831D01*
X54138663Y-71240013D01*
X54136212Y-71242220D01*
X54082902Y-71287751D01*
X54080337Y-71289827D01*
X54024768Y-71332466D01*
X54022100Y-71334404D01*
X53964410Y-71374053D01*
X53961644Y-71375849D01*
X53901929Y-71412444D01*
X53899073Y-71414093D01*
X53837506Y-71447523D01*
X53834567Y-71449020D01*
X53771348Y-71479176D01*
X53768333Y-71480518D01*
X53703576Y-71507342D01*
X53700495Y-71508524D01*
X53634500Y-71531894D01*
X53631364Y-71532913D01*
X53564197Y-71552810D01*
X53561011Y-71553664D01*
X53492916Y-71570013D01*
X53489690Y-71570699D01*
X53420802Y-71583468D01*
X53417543Y-71583985D01*
X53348053Y-71593133D01*
X53344770Y-71593478D01*
X53274935Y-71598973D01*
X53271642Y-71599146D01*
X53199994Y-71601022D01*
X53125998Y-71601021D01*
X53057878Y-71581018D01*
X53011386Y-71527362D01*
X53000000Y-71475021D01*
X53000000Y-68125000D01*
X53020002Y-68056879D01*
X53073658Y-68010386D01*
X53126000Y-67999000D01*
X53200000Y-67999000D01*
X53271652Y-68000899D01*
G37*
G36*
X46942121Y-48218998D02*
G01*
X46988614Y-48272654D01*
X47000000Y-48324996D01*
X47000000Y-51674999D01*
X46979998Y-51743120D01*
X46926342Y-51789613D01*
X46874002Y-51800999D01*
X46800000Y-51801000D01*
X46728340Y-51799118D01*
X46725052Y-51798946D01*
X46655214Y-51793451D01*
X46651932Y-51793107D01*
X46582495Y-51783966D01*
X46579236Y-51783450D01*
X46510306Y-51770674D01*
X46507078Y-51769988D01*
X46438976Y-51753637D01*
X46435790Y-51752783D01*
X46368624Y-51732886D01*
X46365488Y-51731867D01*
X46299493Y-51708497D01*
X46296412Y-51707315D01*
X46231656Y-51680491D01*
X46228642Y-51679150D01*
X46165473Y-51649020D01*
X46162534Y-51647522D01*
X46100964Y-51614093D01*
X46098108Y-51612444D01*
X46038382Y-51575846D01*
X46035614Y-51574049D01*
X45977838Y-51534340D01*
X45975168Y-51532401D01*
X45919617Y-51489773D01*
X45917054Y-51487698D01*
X45863806Y-51442220D01*
X45861356Y-51440014D01*
X45810563Y-51391816D01*
X45808228Y-51389481D01*
X45759961Y-51338617D01*
X45757754Y-51336165D01*
X45712271Y-51282911D01*
X45710195Y-51280347D01*
X45667550Y-51224769D01*
X45665612Y-51222101D01*
X45625965Y-51164414D01*
X45624168Y-51161647D01*
X45587548Y-51101889D01*
X45585899Y-51099032D01*
X45552492Y-51037504D01*
X45550996Y-51034568D01*
X45534505Y-50999998D01*
X45126000Y-50999998D01*
X45057879Y-50979996D01*
X45011386Y-50926340D01*
X45000000Y-50873998D01*
X45000000Y-49125998D01*
X45020002Y-49057877D01*
X45073658Y-49011384D01*
X45126000Y-48999998D01*
X45534502Y-48999998D01*
X45550991Y-48965430D01*
X45552489Y-48962491D01*
X45585897Y-48900962D01*
X45587546Y-48898106D01*
X45624145Y-48838381D01*
X45625941Y-48835615D01*
X45665610Y-48777892D01*
X45667550Y-48775222D01*
X45710195Y-48719643D01*
X45712272Y-48717079D01*
X45757763Y-48663815D01*
X45759969Y-48661365D01*
X45808175Y-48610562D01*
X45810509Y-48608228D01*
X45861328Y-48560002D01*
X45863778Y-48557796D01*
X45917050Y-48512295D01*
X45919614Y-48510219D01*
X45975177Y-48467582D01*
X45977846Y-48465643D01*
X46035567Y-48425972D01*
X46038334Y-48424175D01*
X46098101Y-48387549D01*
X46100958Y-48385900D01*
X46162540Y-48352464D01*
X46165480Y-48350966D01*
X46228681Y-48320823D01*
X46231695Y-48319481D01*
X46296434Y-48292667D01*
X46299513Y-48291485D01*
X46365521Y-48268111D01*
X46368659Y-48267092D01*
X46435833Y-48247195D01*
X46439019Y-48246341D01*
X46507078Y-48230002D01*
X46510302Y-48229317D01*
X46579183Y-48216549D01*
X46582443Y-48216032D01*
X46651897Y-48206888D01*
X46655176Y-48206543D01*
X46724991Y-48201046D01*
X46728288Y-48200873D01*
X46799996Y-48198996D01*
X46874000Y-48198996D01*
X46942121Y-48218998D01*
G37*
G36*
X53271707Y-54800883D02*
G01*
X53274998Y-54801055D01*
X53344817Y-54806552D01*
X53348097Y-54806897D01*
X53417489Y-54816033D01*
X53420745Y-54816549D01*
X53489644Y-54829317D01*
X53492871Y-54830003D01*
X53560967Y-54846350D01*
X53564155Y-54847204D01*
X53631357Y-54867110D01*
X53634496Y-54868130D01*
X53700543Y-54891521D01*
X53703622Y-54892703D01*
X53768330Y-54919507D01*
X53771342Y-54920848D01*
X53834514Y-54950979D01*
X53837453Y-54952476D01*
X53899029Y-54985908D01*
X53901887Y-54987558D01*
X53961646Y-55024178D01*
X53964413Y-55025975D01*
X54022100Y-55065622D01*
X54024768Y-55067560D01*
X54080346Y-55110205D01*
X54082910Y-55112282D01*
X54136174Y-55157773D01*
X54138624Y-55159979D01*
X54189425Y-55208183D01*
X54191760Y-55210518D01*
X54240027Y-55261382D01*
X54242234Y-55263834D01*
X54287717Y-55317088D01*
X54289793Y-55319652D01*
X54332438Y-55375230D01*
X54334376Y-55377898D01*
X54374023Y-55435585D01*
X54375820Y-55438352D01*
X54412440Y-55498110D01*
X54414089Y-55500967D01*
X54447495Y-55562494D01*
X54448991Y-55565430D01*
X54465483Y-55600000D01*
X54465485Y-55600002D01*
X54773995Y-55600002D01*
X54842116Y-55620004D01*
X54888609Y-55673660D01*
X54899995Y-55726002D01*
X54899995Y-57474002D01*
X54879993Y-57542123D01*
X54826337Y-57588616D01*
X54773995Y-57600002D01*
X54465486Y-57600002D01*
X54448996Y-57634570D01*
X54447499Y-57637508D01*
X54414089Y-57699042D01*
X54412439Y-57701899D01*
X54375820Y-57761656D01*
X54374023Y-57764423D01*
X54334376Y-57822110D01*
X54332438Y-57824778D01*
X54289793Y-57880356D01*
X54287716Y-57882920D01*
X54242225Y-57936184D01*
X54240019Y-57938634D01*
X54191815Y-57989435D01*
X54189481Y-57991769D01*
X54138624Y-58040030D01*
X54136172Y-58042237D01*
X54082933Y-58087707D01*
X54080371Y-58089783D01*
X54024820Y-58132410D01*
X54022150Y-58134349D01*
X53964374Y-58174058D01*
X53961606Y-58175855D01*
X53901880Y-58212453D01*
X53899024Y-58214102D01*
X53837454Y-58247531D01*
X53834515Y-58249029D01*
X53771346Y-58279159D01*
X53768332Y-58280500D01*
X53703576Y-58307324D01*
X53700495Y-58308506D01*
X53634500Y-58331876D01*
X53631364Y-58332895D01*
X53564198Y-58352792D01*
X53561012Y-58353646D01*
X53492910Y-58369997D01*
X53489681Y-58370684D01*
X53420753Y-58383458D01*
X53417496Y-58383974D01*
X53348097Y-58393111D01*
X53344817Y-58393456D01*
X53274996Y-58398953D01*
X53271701Y-58399126D01*
X53199995Y-58401004D01*
X53025994Y-58401003D01*
X52957874Y-58381001D01*
X52911381Y-58327345D01*
X52899995Y-58275003D01*
X52899995Y-54925000D01*
X52919997Y-54856879D01*
X52973653Y-54810386D01*
X53025995Y-54799000D01*
X53200000Y-54799000D01*
X53271707Y-54800883D01*
G37*
G36*
X47042114Y-54819006D02*
G01*
X47088607Y-54872661D01*
X47099994Y-54925004D01*
X47099995Y-58275000D01*
X47079993Y-58343121D01*
X47026337Y-58389614D01*
X46973995Y-58401000D01*
X46800000Y-58401000D01*
X46728352Y-58399128D01*
X46725056Y-58398955D01*
X46655214Y-58393460D01*
X46651932Y-58393116D01*
X46582494Y-58383975D01*
X46579235Y-58383459D01*
X46510309Y-58370683D01*
X46507084Y-58369998D01*
X46439019Y-58353658D01*
X46435833Y-58352804D01*
X46368659Y-58332907D01*
X46365521Y-58331888D01*
X46299510Y-58308513D01*
X46296431Y-58307330D01*
X46231656Y-58280501D01*
X46228641Y-58279158D01*
X46165421Y-58249002D01*
X46162482Y-58247505D01*
X46100915Y-58214075D01*
X46098059Y-58212426D01*
X46038344Y-58175831D01*
X46035578Y-58174035D01*
X45977896Y-58134391D01*
X45975228Y-58132452D01*
X45919601Y-58089770D01*
X45917035Y-58087692D01*
X45863778Y-58042202D01*
X45861327Y-58039996D01*
X45810517Y-57991778D01*
X45808184Y-57989445D01*
X45760001Y-57938670D01*
X45757795Y-57936220D01*
X45712307Y-57882964D01*
X45710229Y-57880398D01*
X45667545Y-57824771D01*
X45665605Y-57822100D01*
X45625941Y-57764384D01*
X45624145Y-57761618D01*
X45587546Y-57701893D01*
X45585897Y-57699037D01*
X45552489Y-57637508D01*
X45550991Y-57634569D01*
X45534502Y-57600002D01*
X45225995Y-57600002D01*
X45157874Y-57580000D01*
X45111381Y-57526344D01*
X45099995Y-57474002D01*
X45099995Y-55726002D01*
X45119997Y-55657881D01*
X45173653Y-55611388D01*
X45225995Y-55600002D01*
X45534504Y-55600002D01*
X45534505Y-55600001D01*
X45550996Y-55565431D01*
X45552493Y-55562494D01*
X45585897Y-55500972D01*
X45587546Y-55498115D01*
X45624145Y-55438390D01*
X45625941Y-55435624D01*
X45665605Y-55377908D01*
X45667545Y-55375237D01*
X45710229Y-55319610D01*
X45712307Y-55317044D01*
X45757796Y-55263788D01*
X45760002Y-55261337D01*
X45808220Y-55210527D01*
X45810553Y-55208194D01*
X45861329Y-55160011D01*
X45863779Y-55157805D01*
X45917050Y-55112304D01*
X45919614Y-55110228D01*
X45975177Y-55067591D01*
X45977846Y-55065652D01*
X46035567Y-55025981D01*
X46038334Y-55024184D01*
X46098101Y-54987558D01*
X46100958Y-54985908D01*
X46162535Y-54952476D01*
X46165474Y-54950979D01*
X46228646Y-54920848D01*
X46231658Y-54919507D01*
X46296366Y-54892703D01*
X46299445Y-54891521D01*
X46365492Y-54868130D01*
X46368631Y-54867110D01*
X46435833Y-54847204D01*
X46439021Y-54846350D01*
X46507117Y-54830003D01*
X46510344Y-54829317D01*
X46579243Y-54816549D01*
X46582499Y-54816033D01*
X46651891Y-54806897D01*
X46655171Y-54806552D01*
X46724992Y-54801055D01*
X46728288Y-54800882D01*
X46799995Y-54799005D01*
X46973993Y-54799004D01*
X47042114Y-54819006D01*
G37*
G36*
X53199999Y-48199000D02*
G01*
X53271694Y-48200873D01*
X53274994Y-48201046D01*
X53344817Y-48206543D01*
X53348097Y-48206888D01*
X53417489Y-48216024D01*
X53420745Y-48216540D01*
X53489644Y-48229308D01*
X53492871Y-48229994D01*
X53560967Y-48246341D01*
X53564155Y-48247195D01*
X53631357Y-48267101D01*
X53634496Y-48268121D01*
X53700543Y-48291512D01*
X53703622Y-48292694D01*
X53768330Y-48319498D01*
X53771342Y-48320839D01*
X53834514Y-48350970D01*
X53837453Y-48352467D01*
X53899029Y-48385899D01*
X53901887Y-48387549D01*
X53961646Y-48424169D01*
X53964413Y-48425966D01*
X54022100Y-48465613D01*
X54024768Y-48467551D01*
X54080346Y-48510196D01*
X54082910Y-48512273D01*
X54136174Y-48557764D01*
X54138624Y-48559970D01*
X54189425Y-48608174D01*
X54191760Y-48610509D01*
X54240027Y-48661373D01*
X54242234Y-48663825D01*
X54287717Y-48717079D01*
X54289793Y-48719643D01*
X54332438Y-48775221D01*
X54334376Y-48777889D01*
X54374023Y-48835576D01*
X54375820Y-48838343D01*
X54412439Y-48898100D01*
X54414089Y-48900957D01*
X54447499Y-48962492D01*
X54448996Y-48965429D01*
X54465485Y-48999997D01*
X54465486Y-48999998D01*
X54674000Y-48999998D01*
X54742121Y-49020000D01*
X54788614Y-49073656D01*
X54800000Y-49125998D01*
X54800000Y-50873998D01*
X54779998Y-50942119D01*
X54726342Y-50988612D01*
X54674000Y-50999998D01*
X54465485Y-50999998D01*
X54465482Y-50999999D01*
X54448991Y-51034570D01*
X54447495Y-51037505D01*
X54414091Y-51099027D01*
X54412442Y-51101884D01*
X54375843Y-51161609D01*
X54374047Y-51164375D01*
X54334383Y-51222091D01*
X54332443Y-51224762D01*
X54289759Y-51280389D01*
X54287681Y-51282955D01*
X54242192Y-51336211D01*
X54239986Y-51338662D01*
X54191768Y-51389472D01*
X54189435Y-51391805D01*
X54138660Y-51439988D01*
X54136210Y-51442194D01*
X54082953Y-51487683D01*
X54080387Y-51489761D01*
X54024760Y-51532443D01*
X54022092Y-51534382D01*
X53964410Y-51574026D01*
X53961644Y-51575822D01*
X53901929Y-51612417D01*
X53899073Y-51614066D01*
X53837506Y-51647496D01*
X53834567Y-51648993D01*
X53771347Y-51679149D01*
X53768332Y-51680492D01*
X53703557Y-51707321D01*
X53700478Y-51708504D01*
X53634467Y-51731879D01*
X53631329Y-51732898D01*
X53564155Y-51752795D01*
X53560969Y-51753649D01*
X53492904Y-51769989D01*
X53489679Y-51770674D01*
X53420753Y-51783450D01*
X53417494Y-51783966D01*
X53348056Y-51793107D01*
X53344774Y-51793451D01*
X53274934Y-51798946D01*
X53271642Y-51799119D01*
X53199996Y-51800995D01*
X52926000Y-51800995D01*
X52857879Y-51780993D01*
X52811386Y-51727337D01*
X52800000Y-51674995D01*
X52799999Y-48324999D01*
X52820001Y-48256878D01*
X52873657Y-48210385D01*
X52925999Y-48198999D01*
X53199999Y-48199000D01*
G37*
G36*
X53271640Y-61400889D02*
G01*
X53274921Y-61401061D01*
X53344770Y-61406557D01*
X53348052Y-61406902D01*
X53417543Y-61416050D01*
X53420802Y-61416567D01*
X53489685Y-61429335D01*
X53492910Y-61430020D01*
X53560969Y-61446359D01*
X53564155Y-61447213D01*
X53631316Y-61467106D01*
X53634456Y-61468126D01*
X53700542Y-61491529D01*
X53703622Y-61492712D01*
X53768330Y-61519516D01*
X53771342Y-61520857D01*
X53834514Y-61550988D01*
X53837454Y-61552486D01*
X53899024Y-61585915D01*
X53901880Y-61587564D01*
X53961606Y-61624162D01*
X53964374Y-61625959D01*
X54022150Y-61665668D01*
X54024820Y-61667607D01*
X54080371Y-61710235D01*
X54082934Y-61712310D01*
X54136182Y-61757788D01*
X54138632Y-61759994D01*
X54189425Y-61808192D01*
X54191760Y-61810527D01*
X54240027Y-61861391D01*
X54242234Y-61863843D01*
X54287717Y-61917097D01*
X54289793Y-61919661D01*
X54332438Y-61975239D01*
X54334376Y-61977907D01*
X54374023Y-62035594D01*
X54375820Y-62038361D01*
X54412439Y-62098118D01*
X54414089Y-62100975D01*
X54447503Y-62162516D01*
X54449001Y-62165455D01*
X54465482Y-62200006D01*
X54774000Y-62200006D01*
X54842121Y-62220008D01*
X54888614Y-62273664D01*
X54900000Y-62326006D01*
X54900000Y-64074006D01*
X54879998Y-64142127D01*
X54826342Y-64188620D01*
X54774000Y-64200006D01*
X54465488Y-64200006D01*
X54465486Y-64200007D01*
X54448991Y-64234587D01*
X54447495Y-64237524D01*
X54414089Y-64299050D01*
X54412440Y-64301907D01*
X54375820Y-64361665D01*
X54374023Y-64364432D01*
X54334376Y-64422119D01*
X54332438Y-64424787D01*
X54289793Y-64480365D01*
X54287716Y-64482929D01*
X54242225Y-64536193D01*
X54240019Y-64538643D01*
X54191815Y-64589444D01*
X54189481Y-64591778D01*
X54138624Y-64640039D01*
X54136172Y-64642246D01*
X54082933Y-64687716D01*
X54080371Y-64689792D01*
X54024820Y-64732419D01*
X54022150Y-64734358D01*
X53964374Y-64774067D01*
X53961606Y-64775864D01*
X53901880Y-64812462D01*
X53899024Y-64814111D01*
X53837454Y-64847540D01*
X53834515Y-64849038D01*
X53771346Y-64879168D01*
X53768332Y-64880509D01*
X53703576Y-64907333D01*
X53700495Y-64908515D01*
X53634500Y-64931885D01*
X53631364Y-64932904D01*
X53564198Y-64952801D01*
X53561012Y-64953655D01*
X53492910Y-64970006D01*
X53489681Y-64970693D01*
X53420753Y-64983467D01*
X53417496Y-64983983D01*
X53348097Y-64993120D01*
X53344817Y-64993465D01*
X53274996Y-64998962D01*
X53271701Y-64999135D01*
X53199995Y-65001013D01*
X53025999Y-65001012D01*
X52957879Y-64981010D01*
X52911386Y-64927354D01*
X52900000Y-64875012D01*
X52900000Y-61525000D01*
X52920002Y-61456879D01*
X52973658Y-61410386D01*
X53026000Y-61399000D01*
X53200000Y-61399000D01*
X53271640Y-61400889D01*
G37*
M02*
