%TF.GenerationSoftware,KiCad,Pcbnew,7.0.7*%
%TF.CreationDate,2023-12-01T17:39:10+08:00*%
%TF.ProjectId,Adafruit LED Sequin-WithRails,41646166-7275-4697-9420-4c4544205365,rev?*%
%TF.SameCoordinates,Original*%
%TF.FileFunction,Copper,L1,Top*%
%TF.FilePolarity,Positive*%
%FSLAX46Y46*%
G04 Gerber Fmt 4.6, Leading zero omitted, Abs format (unit mm)*
G04 Created by KiCad (PCBNEW 7.0.7) date 2023-12-01 17:39:10*
%MOMM*%
%LPD*%
G01*
G04 APERTURE LIST*
%TA.AperFunction,SMDPad,CuDef*%
%ADD10R,0.500000X0.500000*%
%TD*%
%TA.AperFunction,SMDPad,CuDef*%
%ADD11R,0.800000X0.600000*%
%TD*%
%TA.AperFunction,ViaPad*%
%ADD12C,0.800000*%
%TD*%
%TA.AperFunction,Conductor*%
%ADD13C,0.250000*%
%TD*%
G04 APERTURE END LIST*
D10*
%TO.P,LED0,1*%
%TO.N,Board_2-/+*%
X51350005Y-62699977D03*
%TO.P,LED0,2*%
%TO.N,Board2IO*%
X51350005Y-63599977D03*
%TO.P,LED0,GND*%
%TO.N,Board_2-/-*%
X52250005Y-63599977D03*
%TO.P,LED0,I*%
%TO.N,Board_2-/IN*%
X52250005Y-62699977D03*
%TD*%
%TO.P,LED0,1*%
%TO.N,Board_0-/+*%
X51250005Y-49499977D03*
%TO.P,LED0,2*%
%TO.N,Board0IO*%
X51250005Y-50399977D03*
%TO.P,LED0,GND*%
%TO.N,Board_0-/-*%
X52150005Y-50399977D03*
%TO.P,LED0,I*%
%TO.N,Board_0-/IN*%
X52150005Y-49499977D03*
%TD*%
%TO.P,LED0,-*%
%TO.N,Board_3-/-*%
X48750005Y-70199977D03*
%TO.P,LED0,3*%
%TO.N,Board3IO*%
X48750005Y-69299977D03*
%TO.P,LED0,5V*%
%TO.N,Board_3-/+*%
X47850005Y-69299977D03*
%TO.P,LED0,O*%
%TO.N,Board_3-/OUT*%
X47850005Y-70199977D03*
%TD*%
%TO.P,LED0,-*%
%TO.N,Board_0-/-*%
X48550005Y-50399977D03*
%TO.P,LED0,3*%
%TO.N,Board0IO*%
X48550005Y-49499977D03*
%TO.P,LED0,5V*%
%TO.N,Board_0-/+*%
X47650005Y-49499977D03*
%TO.P,LED0,O*%
%TO.N,Board_0-/OUT*%
X47650005Y-50399977D03*
%TD*%
D11*
%TO.P,REF\u002A\u002A,1*%
%TO.N,Board_1-/-*%
X50000000Y-57300000D03*
%TO.P,REF\u002A\u002A,2*%
%TO.N,Board_1-/+*%
X50000000Y-55900000D03*
%TD*%
D10*
%TO.P,LED0,-*%
%TO.N,Board_1-/-*%
X48650000Y-56999977D03*
%TO.P,LED0,3*%
%TO.N,Board1IO*%
X48650000Y-56099977D03*
%TO.P,LED0,5V*%
%TO.N,Board_1-/+*%
X47750000Y-56099977D03*
%TO.P,LED0,O*%
%TO.N,Board_1-/OUT*%
X47750000Y-56999977D03*
%TD*%
D11*
%TO.P,REF\u002A\u002A,1*%
%TO.N,Board_3-/-*%
X50100005Y-70500000D03*
%TO.P,REF\u002A\u002A,2*%
%TO.N,Board_3-/+*%
X50100005Y-69100000D03*
%TD*%
D10*
%TO.P,LED0,1*%
%TO.N,Board_1-/+*%
X51350000Y-56099977D03*
%TO.P,LED0,2*%
%TO.N,Board1IO*%
X51350000Y-56999977D03*
%TO.P,LED0,GND*%
%TO.N,Board_1-/-*%
X52250000Y-56999977D03*
%TO.P,LED0,I*%
%TO.N,Board_1-/IN*%
X52250000Y-56099977D03*
%TD*%
D11*
%TO.P,REF\u002A\u002A,1*%
%TO.N,Board_0-/-*%
X49900005Y-50700000D03*
%TO.P,REF\u002A\u002A,2*%
%TO.N,Board_0-/+*%
X49900005Y-49300000D03*
%TD*%
D10*
%TO.P,LED0,1*%
%TO.N,Board_3-/+*%
X51450005Y-69299977D03*
%TO.P,LED0,2*%
%TO.N,Board3IO*%
X51450005Y-70199977D03*
%TO.P,LED0,GND*%
%TO.N,Board_3-/-*%
X52350005Y-70199977D03*
%TO.P,LED0,I*%
%TO.N,Board_3-/IN*%
X52350005Y-69299977D03*
%TD*%
D11*
%TO.P,REF\u002A\u002A,1*%
%TO.N,Board_2-/-*%
X50000005Y-63900000D03*
%TO.P,REF\u002A\u002A,2*%
%TO.N,Board_2-/+*%
X50000005Y-62500000D03*
%TD*%
D10*
%TO.P,LED0,-*%
%TO.N,Board_2-/-*%
X48650005Y-63599977D03*
%TO.P,LED0,3*%
%TO.N,Board2IO*%
X48650005Y-62699977D03*
%TO.P,LED0,5V*%
%TO.N,Board_2-/+*%
X47750005Y-62699977D03*
%TO.P,LED0,O*%
%TO.N,Board_2-/OUT*%
X47750005Y-63599977D03*
%TD*%
D12*
%TO.N,Board_0-/+*%
X46500000Y-49200000D03*
%TO.N,Board_0-/-*%
X53300000Y-50800000D03*
%TO.N,Board_0-/IN*%
X53300000Y-49200000D03*
%TO.N,Board_0-/OUT*%
X46500000Y-50800000D03*
%TO.N,Board_1-/+*%
X46599995Y-55800000D03*
%TO.N,Board_1-/-*%
X53399995Y-57400000D03*
%TO.N,Board_1-/IN*%
X53399995Y-55800000D03*
%TO.N,Board_1-/OUT*%
X46599995Y-57400000D03*
%TO.N,Board_2-/+*%
X46600000Y-62400000D03*
%TO.N,Board_2-/-*%
X53400000Y-64000000D03*
%TO.N,Board_2-/IN*%
X53400000Y-62400000D03*
%TO.N,Board_2-/OUT*%
X46600000Y-64000000D03*
%TO.N,Board_3-/+*%
X46700000Y-69000000D03*
%TO.N,Board_3-/-*%
X53500000Y-70600000D03*
%TO.N,Board_3-/IN*%
X53500000Y-69000000D03*
%TO.N,Board_3-/OUT*%
X46700000Y-70600000D03*
%TD*%
D13*
%TO.N,Board3IO*%
X48899982Y-69299977D02*
X48750005Y-69299977D01*
X51450005Y-70199977D02*
X51099982Y-70199977D01*
X50721005Y-69821000D02*
X49421005Y-69821000D01*
X51099982Y-70199977D02*
X50721005Y-69821000D01*
X49421005Y-69821000D02*
X48899982Y-69299977D01*
%TO.N,Board0IO*%
X51250005Y-50399977D02*
X50899982Y-50399977D01*
X50899982Y-50399977D02*
X50521005Y-50021000D01*
X49221005Y-50021000D02*
X48699982Y-49499977D01*
X48699982Y-49499977D02*
X48550005Y-49499977D01*
X50521005Y-50021000D02*
X49221005Y-50021000D01*
%TO.N,Board1IO*%
X48799977Y-56099977D02*
X48650000Y-56099977D01*
X51350000Y-56999977D02*
X50999977Y-56999977D01*
X50621000Y-56621000D02*
X49321000Y-56621000D01*
X50999977Y-56999977D02*
X50621000Y-56621000D01*
X49321000Y-56621000D02*
X48799977Y-56099977D01*
%TO.N,Board2IO*%
X48799982Y-62699977D02*
X48650005Y-62699977D01*
X50999982Y-63599977D02*
X50621005Y-63221000D01*
X50621005Y-63221000D02*
X49321005Y-63221000D01*
X51350005Y-63599977D02*
X50999982Y-63599977D01*
X49321005Y-63221000D02*
X48799982Y-62699977D01*
%TD*%
%TA.AperFunction,Conductor*%
%TO.N,Board_2-/IN*%
G36*
X53203469Y-61409594D02*
G01*
X53271100Y-61411377D01*
X53274350Y-61411548D01*
X53312415Y-61414543D01*
X53343656Y-61417001D01*
X53346909Y-61417341D01*
X53415927Y-61426428D01*
X53419149Y-61426939D01*
X53487518Y-61439612D01*
X53490722Y-61440292D01*
X53558253Y-61456505D01*
X53561424Y-61457355D01*
X53628078Y-61477098D01*
X53631216Y-61478118D01*
X53645192Y-61483067D01*
X53696780Y-61501335D01*
X53699842Y-61502511D01*
X53764078Y-61529120D01*
X53767074Y-61530454D01*
X53829783Y-61560364D01*
X53832660Y-61561829D01*
X53893795Y-61595023D01*
X53896591Y-61596636D01*
X53955888Y-61632973D01*
X53958634Y-61634756D01*
X53990887Y-61656922D01*
X54015951Y-61674148D01*
X54018621Y-61676087D01*
X54034314Y-61688128D01*
X54051489Y-61701308D01*
X54093356Y-61758645D01*
X54097578Y-61829516D01*
X54080784Y-61869390D01*
X54003314Y-61989937D01*
X53962767Y-62128026D01*
X53962767Y-62271949D01*
X54003315Y-62410041D01*
X54081123Y-62531114D01*
X54081124Y-62531115D01*
X54081125Y-62531116D01*
X54189895Y-62625365D01*
X54213231Y-62636022D01*
X54266887Y-62682514D01*
X54286890Y-62750634D01*
X54266889Y-62818755D01*
X54243404Y-62845859D01*
X54216862Y-62868858D01*
X54216860Y-62868860D01*
X54201911Y-62892122D01*
X54148255Y-62938614D01*
X54095914Y-62950000D01*
X53060219Y-62950000D01*
X53060141Y-62949977D01*
X52126005Y-62949977D01*
X52057884Y-62929975D01*
X52050000Y-62920876D01*
X52050000Y-61941977D01*
X52500005Y-61941977D01*
X52500005Y-62449977D01*
X53008005Y-62449977D01*
X53008005Y-62401391D01*
X53008004Y-62401379D01*
X53001499Y-62340883D01*
X52950449Y-62204012D01*
X52950449Y-62204011D01*
X52862909Y-62087072D01*
X52745970Y-61999532D01*
X52609098Y-61948482D01*
X52548602Y-61941977D01*
X52500005Y-61941977D01*
X52050000Y-61941977D01*
X52050000Y-61535501D01*
X52070002Y-61467380D01*
X52123658Y-61420887D01*
X52175994Y-61409502D01*
X53199872Y-61409500D01*
X53203469Y-61409594D01*
G37*
%TD.AperFunction*%
%TD*%
%TA.AperFunction,Conductor*%
%TO.N,Board_0-/-*%
G36*
X48675389Y-50060329D02*
G01*
X48742835Y-50082482D01*
X48760481Y-50097170D01*
X48915585Y-50252274D01*
X48931973Y-50272454D01*
X48937935Y-50281579D01*
X48937937Y-50281582D01*
X48966226Y-50303600D01*
X48972083Y-50308773D01*
X48974880Y-50311570D01*
X48974886Y-50311575D01*
X48974892Y-50311581D01*
X48974898Y-50311585D01*
X48994100Y-50325296D01*
X49031129Y-50354116D01*
X49037886Y-50359375D01*
X49037890Y-50359376D01*
X49044874Y-50363156D01*
X49052028Y-50366654D01*
X49105187Y-50382479D01*
X49157678Y-50400500D01*
X49157682Y-50400500D01*
X49165516Y-50401807D01*
X49173414Y-50402791D01*
X49173415Y-50402792D01*
X49173415Y-50402791D01*
X49173416Y-50402792D01*
X49228841Y-50400500D01*
X50311621Y-50400500D01*
X50379742Y-50420502D01*
X50400716Y-50437405D01*
X50594562Y-50631251D01*
X50610950Y-50651431D01*
X50616912Y-50660556D01*
X50616914Y-50660559D01*
X50645203Y-50682577D01*
X50651060Y-50687750D01*
X50653861Y-50690551D01*
X50653865Y-50690554D01*
X50653868Y-50690557D01*
X50673075Y-50704270D01*
X50716863Y-50738352D01*
X50723841Y-50742128D01*
X50730997Y-50745626D01*
X50731002Y-50745630D01*
X50731007Y-50745631D01*
X50740307Y-50750178D01*
X50789734Y-50793372D01*
X50816521Y-50833461D01*
X50816522Y-50833462D01*
X50900702Y-50889710D01*
X50900704Y-50889711D01*
X50974938Y-50904477D01*
X51525071Y-50904476D01*
X51525074Y-50904475D01*
X51525078Y-50904475D01*
X51574331Y-50894678D01*
X51599306Y-50889711D01*
X51683489Y-50833461D01*
X51739739Y-50749278D01*
X51754505Y-50675044D01*
X51754504Y-50288140D01*
X51774506Y-50220022D01*
X51828161Y-50173529D01*
X51884495Y-50162206D01*
X53986350Y-50228931D01*
X54053800Y-50251085D01*
X54088348Y-50286747D01*
X54116861Y-50331114D01*
X54143407Y-50354116D01*
X54181791Y-50413842D01*
X54181791Y-50484839D01*
X54143408Y-50544565D01*
X54113241Y-50563953D01*
X54089908Y-50574609D01*
X54089905Y-50574611D01*
X53981134Y-50668861D01*
X53903326Y-50789934D01*
X53862779Y-50928026D01*
X53862779Y-51071949D01*
X53903326Y-51210041D01*
X53981134Y-51331114D01*
X53998685Y-51346322D01*
X54037069Y-51406049D01*
X54037069Y-51477045D01*
X53998686Y-51536771D01*
X53987542Y-51545386D01*
X53958692Y-51565214D01*
X53955924Y-51567012D01*
X53896669Y-51603323D01*
X53893815Y-51604971D01*
X53832740Y-51638135D01*
X53829799Y-51639634D01*
X53767080Y-51669550D01*
X53764065Y-51670893D01*
X53699790Y-51697515D01*
X53696710Y-51698698D01*
X53631213Y-51721891D01*
X53628076Y-51722910D01*
X53591108Y-51733860D01*
X53561432Y-51742650D01*
X53558250Y-51743503D01*
X53490734Y-51759711D01*
X53487508Y-51760397D01*
X53419114Y-51773073D01*
X53415855Y-51773589D01*
X53346939Y-51782662D01*
X53343656Y-51783006D01*
X53274386Y-51788456D01*
X53271094Y-51788629D01*
X53199848Y-51790495D01*
X48476000Y-51790497D01*
X48407879Y-51770495D01*
X48361386Y-51716839D01*
X48350000Y-51664497D01*
X48350000Y-50180063D01*
X48370002Y-50111942D01*
X48423658Y-50065449D01*
X48479994Y-50054126D01*
X48675389Y-50060329D01*
G37*
%TD.AperFunction*%
%TD*%
%TA.AperFunction,Conductor*%
%TO.N,Board_3-/+*%
G36*
X51592120Y-68029507D02*
G01*
X51638613Y-68083162D01*
X51650000Y-68135505D01*
X51650000Y-69424000D01*
X51629998Y-69492121D01*
X51576342Y-69538614D01*
X51524000Y-69550000D01*
X51034908Y-69550000D01*
X50966787Y-69529998D01*
X50961691Y-69526544D01*
X50947911Y-69516705D01*
X50904125Y-69482625D01*
X50897145Y-69478848D01*
X50889982Y-69475346D01*
X50836823Y-69459520D01*
X50784331Y-69441499D01*
X50776509Y-69440194D01*
X50768594Y-69439207D01*
X50713180Y-69441500D01*
X49630389Y-69441500D01*
X49562268Y-69421498D01*
X49541294Y-69404595D01*
X49291409Y-69154710D01*
X49257383Y-69092398D01*
X49254504Y-69065615D01*
X49254504Y-69024913D01*
X49254503Y-69024904D01*
X49239739Y-68950676D01*
X49239738Y-68950674D01*
X49183489Y-68866493D01*
X49183488Y-68866492D01*
X49099307Y-68810243D01*
X49025073Y-68795477D01*
X48474941Y-68795477D01*
X48474931Y-68795478D01*
X48400704Y-68810242D01*
X48316520Y-68866493D01*
X48260271Y-68950674D01*
X48245505Y-69024907D01*
X48245505Y-69024910D01*
X48245505Y-69299487D01*
X48245506Y-69424000D01*
X48225504Y-69492120D01*
X48171849Y-69538614D01*
X48119506Y-69550000D01*
X46004093Y-69550000D01*
X45935972Y-69529998D01*
X45898096Y-69492122D01*
X45883146Y-69468860D01*
X45856601Y-69445859D01*
X45818217Y-69386133D01*
X45818217Y-69315136D01*
X45856600Y-69255410D01*
X45886767Y-69236022D01*
X45910104Y-69225365D01*
X46018874Y-69131116D01*
X46096684Y-69010041D01*
X46137231Y-68871949D01*
X46137231Y-68728027D01*
X46096684Y-68589935D01*
X46018874Y-68468860D01*
X46001340Y-68453667D01*
X45962957Y-68393942D01*
X45962957Y-68322945D01*
X46001340Y-68263219D01*
X46012466Y-68254617D01*
X46041365Y-68234756D01*
X46044091Y-68232987D01*
X46103379Y-68196657D01*
X46106210Y-68195022D01*
X46167315Y-68161845D01*
X46170186Y-68160381D01*
X46232943Y-68130448D01*
X46235897Y-68129133D01*
X46278576Y-68111456D01*
X46300192Y-68102503D01*
X46303240Y-68101331D01*
X46368771Y-68078125D01*
X46371805Y-68077139D01*
X46438514Y-68057377D01*
X46441673Y-68056531D01*
X46509348Y-68040283D01*
X46512481Y-68039617D01*
X46580920Y-68026934D01*
X46584085Y-68026432D01*
X46653099Y-68017347D01*
X46656312Y-68017011D01*
X46725567Y-68011561D01*
X46728819Y-68011390D01*
X46800141Y-68009522D01*
X51524002Y-68009505D01*
X51592120Y-68029507D01*
G37*
%TD.AperFunction*%
%TD*%
%TA.AperFunction,Conductor*%
%TO.N,Board_1-/IN*%
G36*
X53219498Y-54810015D02*
G01*
X53271150Y-54811371D01*
X53274386Y-54811540D01*
X53343745Y-54817000D01*
X53346957Y-54817338D01*
X53415875Y-54826411D01*
X53419091Y-54826920D01*
X53487445Y-54839588D01*
X53490655Y-54840271D01*
X53558251Y-54856497D01*
X53561433Y-54857349D01*
X53628141Y-54877109D01*
X53631253Y-54878121D01*
X53696779Y-54901327D01*
X53699858Y-54902509D01*
X53764070Y-54929108D01*
X53767081Y-54930449D01*
X53784175Y-54938602D01*
X53829781Y-54960354D01*
X53832661Y-54961821D01*
X53893777Y-54995004D01*
X53896621Y-54996647D01*
X53955931Y-55032992D01*
X53958697Y-55034788D01*
X54015933Y-55074124D01*
X54018590Y-55076054D01*
X54051489Y-55101298D01*
X54093357Y-55158635D01*
X54097579Y-55229506D01*
X54080784Y-55269381D01*
X54003310Y-55389934D01*
X53962763Y-55528026D01*
X53962763Y-55671949D01*
X54003310Y-55810041D01*
X54081118Y-55931114D01*
X54081119Y-55931115D01*
X54081120Y-55931116D01*
X54189890Y-56025365D01*
X54213226Y-56036022D01*
X54266882Y-56082514D01*
X54286885Y-56150634D01*
X54266884Y-56218755D01*
X54243399Y-56245859D01*
X54216857Y-56268858D01*
X54216855Y-56268860D01*
X54201906Y-56292122D01*
X54148250Y-56338614D01*
X54095909Y-56350000D01*
X53060214Y-56350000D01*
X53060136Y-56349977D01*
X52126000Y-56349977D01*
X52057879Y-56329975D01*
X52049995Y-56320876D01*
X52049995Y-55341977D01*
X52500000Y-55341977D01*
X52500000Y-55849977D01*
X53008000Y-55849977D01*
X53008000Y-55801391D01*
X53007999Y-55801379D01*
X53001494Y-55740883D01*
X52950444Y-55604012D01*
X52950444Y-55604011D01*
X52862904Y-55487072D01*
X52745965Y-55399532D01*
X52609093Y-55348482D01*
X52548597Y-55341977D01*
X52500000Y-55341977D01*
X52049995Y-55341977D01*
X52049995Y-54935499D01*
X52069997Y-54867379D01*
X52123653Y-54820886D01*
X52175991Y-54809500D01*
X53199845Y-54809500D01*
X53219498Y-54810015D01*
G37*
%TD.AperFunction*%
%TD*%
%TA.AperFunction,Conductor*%
%TO.N,Board_0-/OUT*%
G36*
X47888619Y-50223635D02*
G01*
X47900005Y-50275977D01*
X47900005Y-51157977D01*
X47913095Y-51171068D01*
X47947121Y-51233380D01*
X47950000Y-51260163D01*
X47950000Y-51664498D01*
X47929998Y-51732619D01*
X47876342Y-51779112D01*
X47824000Y-51790498D01*
X46800151Y-51790498D01*
X46798439Y-51790454D01*
X46728894Y-51788629D01*
X46725604Y-51788457D01*
X46656325Y-51783006D01*
X46653053Y-51782663D01*
X46608404Y-51776785D01*
X46584140Y-51773591D01*
X46580881Y-51773075D01*
X46512477Y-51760396D01*
X46509249Y-51759710D01*
X46441683Y-51743488D01*
X46438510Y-51742638D01*
X46402023Y-51731829D01*
X46371862Y-51722894D01*
X46368725Y-51721875D01*
X46303270Y-51698695D01*
X46300192Y-51697514D01*
X46235922Y-51670893D01*
X46232907Y-51669551D01*
X46170220Y-51639651D01*
X46167281Y-51638153D01*
X46106235Y-51605008D01*
X46103380Y-51603360D01*
X46044100Y-51567035D01*
X46041343Y-51565245D01*
X45984011Y-51525842D01*
X45981371Y-51523924D01*
X45926215Y-51481601D01*
X45923656Y-51479529D01*
X45889450Y-51450314D01*
X45878038Y-51440567D01*
X45839231Y-51381118D01*
X45838725Y-51310123D01*
X45853874Y-51276637D01*
X45864462Y-51260163D01*
X45896673Y-51210041D01*
X45937220Y-51071949D01*
X45937220Y-50928027D01*
X45896673Y-50789935D01*
X45818863Y-50668860D01*
X45797071Y-50649977D01*
X46892005Y-50649977D01*
X46892005Y-50698574D01*
X46898510Y-50759070D01*
X46949560Y-50895941D01*
X46949560Y-50895942D01*
X47037100Y-51012881D01*
X47154039Y-51100421D01*
X47290911Y-51151471D01*
X47351407Y-51157976D01*
X47351420Y-51157977D01*
X47400005Y-51157977D01*
X47400005Y-50649977D01*
X46892005Y-50649977D01*
X45797071Y-50649977D01*
X45710093Y-50574611D01*
X45686765Y-50563957D01*
X45633110Y-50517465D01*
X45613108Y-50449344D01*
X45633110Y-50381223D01*
X45656597Y-50354119D01*
X45683144Y-50331116D01*
X45683144Y-50331115D01*
X45683145Y-50331115D01*
X45730210Y-50257879D01*
X45783867Y-50211386D01*
X45836209Y-50200000D01*
X46852006Y-50200000D01*
X47868139Y-50200000D01*
X47888619Y-50223635D01*
G37*
%TD.AperFunction*%
%TD*%
%TA.AperFunction,Conductor*%
%TO.N,Board_2-/+*%
G36*
X51492121Y-61429505D02*
G01*
X51538614Y-61483160D01*
X51550000Y-61535503D01*
X51550000Y-62824000D01*
X51529998Y-62892121D01*
X51476342Y-62938614D01*
X51424000Y-62950000D01*
X50934908Y-62950000D01*
X50866787Y-62929998D01*
X50861691Y-62926544D01*
X50847911Y-62916705D01*
X50804125Y-62882625D01*
X50797145Y-62878848D01*
X50789982Y-62875346D01*
X50736823Y-62859520D01*
X50684331Y-62841499D01*
X50676509Y-62840194D01*
X50668594Y-62839207D01*
X50613180Y-62841500D01*
X49530389Y-62841500D01*
X49462268Y-62821498D01*
X49441294Y-62804595D01*
X49191409Y-62554710D01*
X49157383Y-62492398D01*
X49154504Y-62465615D01*
X49154504Y-62424913D01*
X49154503Y-62424904D01*
X49139739Y-62350676D01*
X49139738Y-62350674D01*
X49083489Y-62266493D01*
X49083488Y-62266492D01*
X48999307Y-62210243D01*
X48925073Y-62195477D01*
X48374941Y-62195477D01*
X48374931Y-62195478D01*
X48300704Y-62210242D01*
X48216520Y-62266493D01*
X48160271Y-62350674D01*
X48145505Y-62424907D01*
X48145505Y-62424910D01*
X48145505Y-62699487D01*
X48145506Y-62824000D01*
X48125504Y-62892120D01*
X48071849Y-62938614D01*
X48019506Y-62950000D01*
X45904093Y-62950000D01*
X45835972Y-62929998D01*
X45798096Y-62892122D01*
X45783146Y-62868860D01*
X45756601Y-62845859D01*
X45718217Y-62786133D01*
X45718217Y-62715136D01*
X45756600Y-62655410D01*
X45786767Y-62636022D01*
X45810104Y-62625365D01*
X45918874Y-62531116D01*
X45996684Y-62410041D01*
X46037231Y-62271949D01*
X46037231Y-62128027D01*
X45996684Y-61989935D01*
X45919211Y-61869384D01*
X45899209Y-61801264D01*
X45919211Y-61733143D01*
X45948497Y-61701308D01*
X45981436Y-61676034D01*
X45984033Y-61674147D01*
X46041316Y-61634779D01*
X46044037Y-61633012D01*
X46103350Y-61596663D01*
X46106143Y-61595050D01*
X46167255Y-61561868D01*
X46170179Y-61560378D01*
X46232927Y-61530447D01*
X46235903Y-61529122D01*
X46300225Y-61502479D01*
X46303238Y-61501323D01*
X46368816Y-61478101D01*
X46371885Y-61477104D01*
X46438573Y-61457352D01*
X46441733Y-61456505D01*
X46490460Y-61444807D01*
X46509251Y-61440297D01*
X46512475Y-61439612D01*
X46535336Y-61435374D01*
X46580912Y-61426926D01*
X46584108Y-61426421D01*
X46653087Y-61417340D01*
X46656288Y-61417003D01*
X46725623Y-61411549D01*
X46728859Y-61411379D01*
X46798164Y-61409564D01*
X46800141Y-61409513D01*
X46800156Y-61409512D01*
X51424002Y-61409503D01*
X51492121Y-61429505D01*
G37*
%TD.AperFunction*%
%TD*%
%TA.AperFunction,Conductor*%
%TO.N,Board_3-/IN*%
G36*
X53271107Y-68011388D02*
G01*
X53274380Y-68011560D01*
X53343656Y-68017010D01*
X53346939Y-68017355D01*
X53359033Y-68018947D01*
X53415908Y-68026434D01*
X53419152Y-68026949D01*
X53487513Y-68039620D01*
X53490736Y-68040305D01*
X53558298Y-68056527D01*
X53561464Y-68057375D01*
X53564599Y-68058304D01*
X53628136Y-68077126D01*
X53631264Y-68078142D01*
X53696755Y-68101334D01*
X53699765Y-68102490D01*
X53764066Y-68129124D01*
X53767074Y-68130463D01*
X53829810Y-68160387D01*
X53832740Y-68161881D01*
X53893815Y-68195045D01*
X53896669Y-68196693D01*
X53913930Y-68207270D01*
X53955949Y-68233020D01*
X53958674Y-68234790D01*
X53990847Y-68256901D01*
X54015934Y-68274143D01*
X54018590Y-68276072D01*
X54073734Y-68318384D01*
X54076283Y-68320448D01*
X54121930Y-68359436D01*
X54160738Y-68418886D01*
X54161244Y-68489881D01*
X54146097Y-68523365D01*
X54103314Y-68589937D01*
X54062768Y-68728026D01*
X54062768Y-68871949D01*
X54103315Y-69010041D01*
X54181123Y-69131114D01*
X54181124Y-69131115D01*
X54181125Y-69131116D01*
X54289895Y-69225365D01*
X54313231Y-69236022D01*
X54366887Y-69282514D01*
X54386890Y-69350634D01*
X54366889Y-69418755D01*
X54343404Y-69445859D01*
X54316862Y-69468858D01*
X54316860Y-69468860D01*
X54301911Y-69492122D01*
X54248255Y-69538614D01*
X54195914Y-69550000D01*
X53160219Y-69550000D01*
X53160141Y-69549977D01*
X52226005Y-69549977D01*
X52157884Y-69529975D01*
X52150000Y-69520876D01*
X52150000Y-68541977D01*
X52600005Y-68541977D01*
X52600005Y-69049977D01*
X53108005Y-69049977D01*
X53108005Y-69001391D01*
X53108004Y-69001379D01*
X53101499Y-68940883D01*
X53050449Y-68804012D01*
X53050449Y-68804011D01*
X52962909Y-68687072D01*
X52845970Y-68599532D01*
X52709098Y-68548482D01*
X52648602Y-68541977D01*
X52600005Y-68541977D01*
X52150000Y-68541977D01*
X52150000Y-68135501D01*
X52170002Y-68067381D01*
X52223658Y-68020888D01*
X52275993Y-68009503D01*
X53199861Y-68009500D01*
X53271107Y-68011388D01*
G37*
%TD.AperFunction*%
%TD*%
%TA.AperFunction,Conductor*%
%TO.N,Board_1-/+*%
G36*
X51492115Y-54829503D02*
G01*
X51538608Y-54883159D01*
X51549994Y-54935501D01*
X51549995Y-56224000D01*
X51529993Y-56292121D01*
X51476337Y-56338614D01*
X51423995Y-56350000D01*
X50934903Y-56350000D01*
X50866782Y-56329998D01*
X50861686Y-56326544D01*
X50847906Y-56316705D01*
X50804120Y-56282625D01*
X50797140Y-56278848D01*
X50789977Y-56275346D01*
X50736818Y-56259520D01*
X50684326Y-56241499D01*
X50676504Y-56240194D01*
X50668589Y-56239207D01*
X50613175Y-56241500D01*
X49530384Y-56241500D01*
X49462263Y-56221498D01*
X49441289Y-56204595D01*
X49191404Y-55954710D01*
X49157378Y-55892398D01*
X49154499Y-55865615D01*
X49154499Y-55824913D01*
X49154498Y-55824904D01*
X49139734Y-55750676D01*
X49139733Y-55750674D01*
X49083484Y-55666493D01*
X49083483Y-55666492D01*
X48999302Y-55610243D01*
X48925068Y-55595477D01*
X48374936Y-55595477D01*
X48374926Y-55595478D01*
X48300699Y-55610242D01*
X48216515Y-55666493D01*
X48160266Y-55750674D01*
X48145500Y-55824907D01*
X48145500Y-55824910D01*
X48145500Y-56099487D01*
X48145501Y-56224000D01*
X48125499Y-56292120D01*
X48071844Y-56338614D01*
X48019501Y-56350000D01*
X45904088Y-56350000D01*
X45835967Y-56329998D01*
X45798091Y-56292122D01*
X45783141Y-56268860D01*
X45756596Y-56245859D01*
X45718212Y-56186133D01*
X45718212Y-56115136D01*
X45756595Y-56055410D01*
X45786762Y-56036022D01*
X45810099Y-56025365D01*
X45918869Y-55931116D01*
X45996679Y-55810041D01*
X46037226Y-55671949D01*
X46037226Y-55528027D01*
X45996679Y-55389935D01*
X45919203Y-55269380D01*
X45899202Y-55201261D01*
X45919204Y-55133140D01*
X45948496Y-55101301D01*
X45981353Y-55076088D01*
X45984020Y-55074150D01*
X46005892Y-55059117D01*
X46041300Y-55034780D01*
X46044034Y-55033005D01*
X46103422Y-54996612D01*
X46106172Y-54995024D01*
X46167317Y-54961826D01*
X46170200Y-54960357D01*
X46232920Y-54930441D01*
X46235911Y-54929109D01*
X46300120Y-54902511D01*
X46303201Y-54901329D01*
X46335970Y-54889723D01*
X46368749Y-54878116D01*
X46371879Y-54877100D01*
X46384147Y-54873465D01*
X46438559Y-54857347D01*
X46441731Y-54856498D01*
X46509332Y-54840271D01*
X46512535Y-54839589D01*
X46580902Y-54826919D01*
X46584106Y-54826412D01*
X46653034Y-54817338D01*
X46656241Y-54817000D01*
X46725597Y-54811541D01*
X46728796Y-54811373D01*
X46800141Y-54809504D01*
X51423994Y-54809501D01*
X51492115Y-54829503D01*
G37*
%TD.AperFunction*%
%TD*%
%TA.AperFunction,Conductor*%
%TO.N,Board_1-/-*%
G36*
X48775384Y-56660329D02*
G01*
X48842830Y-56682482D01*
X48860476Y-56697170D01*
X49015580Y-56852274D01*
X49031968Y-56872454D01*
X49037930Y-56881579D01*
X49037932Y-56881582D01*
X49066221Y-56903600D01*
X49072078Y-56908773D01*
X49074875Y-56911570D01*
X49074881Y-56911575D01*
X49074887Y-56911581D01*
X49074893Y-56911585D01*
X49094095Y-56925296D01*
X49131124Y-56954116D01*
X49137881Y-56959375D01*
X49137885Y-56959376D01*
X49144869Y-56963156D01*
X49152023Y-56966654D01*
X49205181Y-56982479D01*
X49205182Y-56982479D01*
X49257673Y-57000500D01*
X49257677Y-57000500D01*
X49265511Y-57001807D01*
X49273409Y-57002791D01*
X49273410Y-57002792D01*
X49273410Y-57002791D01*
X49273411Y-57002792D01*
X49328836Y-57000500D01*
X50411616Y-57000500D01*
X50479737Y-57020502D01*
X50500711Y-57037405D01*
X50694557Y-57231251D01*
X50710945Y-57251431D01*
X50716907Y-57260556D01*
X50716909Y-57260559D01*
X50745198Y-57282577D01*
X50751055Y-57287750D01*
X50753856Y-57290551D01*
X50753860Y-57290554D01*
X50753863Y-57290557D01*
X50773070Y-57304270D01*
X50816858Y-57338352D01*
X50823836Y-57342128D01*
X50830992Y-57345626D01*
X50830997Y-57345630D01*
X50831002Y-57345631D01*
X50840302Y-57350178D01*
X50889729Y-57393372D01*
X50916516Y-57433461D01*
X50916517Y-57433462D01*
X51000697Y-57489710D01*
X51000699Y-57489711D01*
X51074933Y-57504477D01*
X51625066Y-57504476D01*
X51625069Y-57504475D01*
X51625073Y-57504475D01*
X51674326Y-57494678D01*
X51699301Y-57489711D01*
X51783484Y-57433461D01*
X51839734Y-57349278D01*
X51854500Y-57275044D01*
X51854499Y-56888140D01*
X51874501Y-56820022D01*
X51928156Y-56773529D01*
X51984490Y-56762206D01*
X54086345Y-56828931D01*
X54153795Y-56851085D01*
X54188343Y-56886747D01*
X54216856Y-56931114D01*
X54243402Y-56954116D01*
X54281786Y-57013842D01*
X54281786Y-57084839D01*
X54243403Y-57144565D01*
X54213236Y-57163953D01*
X54189903Y-57174609D01*
X54189900Y-57174611D01*
X54081129Y-57268861D01*
X54003321Y-57389934D01*
X53962773Y-57528026D01*
X53962773Y-57671949D01*
X54003320Y-57810039D01*
X54080805Y-57930608D01*
X54100807Y-57998729D01*
X54080805Y-58066850D01*
X54051511Y-58098691D01*
X54018621Y-58123929D01*
X54015951Y-58125868D01*
X53958654Y-58165247D01*
X53955888Y-58167043D01*
X53896623Y-58203361D01*
X53893766Y-58205010D01*
X53832706Y-58238162D01*
X53829767Y-58239660D01*
X53767080Y-58269560D01*
X53764065Y-58270902D01*
X53699795Y-58297523D01*
X53696717Y-58298704D01*
X53631274Y-58321880D01*
X53628137Y-58322899D01*
X53561467Y-58342649D01*
X53558280Y-58343503D01*
X53490739Y-58359719D01*
X53487512Y-58360405D01*
X53419108Y-58373084D01*
X53415849Y-58373600D01*
X53346979Y-58382666D01*
X53343707Y-58383010D01*
X53274429Y-58388464D01*
X53271144Y-58388636D01*
X53199846Y-58390503D01*
X48575995Y-58390500D01*
X48507874Y-58370498D01*
X48461381Y-58316842D01*
X48449995Y-58264500D01*
X48449995Y-56780063D01*
X48469997Y-56711942D01*
X48523653Y-56665449D01*
X48579989Y-56654126D01*
X48775384Y-56660329D01*
G37*
%TD.AperFunction*%
%TD*%
%TA.AperFunction,Conductor*%
%TO.N,Board_2-/OUT*%
G36*
X47988619Y-63423635D02*
G01*
X48000005Y-63475977D01*
X48000005Y-64357978D01*
X48013095Y-64371068D01*
X48047121Y-64433380D01*
X48050000Y-64460163D01*
X48049999Y-64864501D01*
X48029997Y-64932622D01*
X47976341Y-64979115D01*
X47923999Y-64990501D01*
X46800131Y-64990500D01*
X46728905Y-64988647D01*
X46725605Y-64988475D01*
X46719167Y-64987968D01*
X46656325Y-64983024D01*
X46653053Y-64982681D01*
X46608404Y-64976803D01*
X46584140Y-64973609D01*
X46580880Y-64973093D01*
X46512475Y-64960413D01*
X46509251Y-64959728D01*
X46441750Y-64943524D01*
X46438563Y-64942670D01*
X46371907Y-64922927D01*
X46368782Y-64921912D01*
X46339727Y-64911623D01*
X46303255Y-64898708D01*
X46300193Y-64897533D01*
X46235930Y-64870914D01*
X46232916Y-64869572D01*
X46170195Y-64839655D01*
X46167255Y-64838157D01*
X46106167Y-64804988D01*
X46103322Y-64803345D01*
X46044064Y-64767030D01*
X46041303Y-64765237D01*
X45984062Y-64725897D01*
X45981391Y-64723957D01*
X45948475Y-64698699D01*
X45906609Y-64641361D01*
X45902388Y-64570489D01*
X45919181Y-64530620D01*
X45996673Y-64410041D01*
X46037220Y-64271949D01*
X46037220Y-64128027D01*
X45996673Y-63989935D01*
X45918863Y-63868860D01*
X45897071Y-63849977D01*
X46992005Y-63849977D01*
X46992005Y-63898574D01*
X46998510Y-63959070D01*
X47049560Y-64095941D01*
X47049560Y-64095942D01*
X47137100Y-64212881D01*
X47254039Y-64300421D01*
X47390911Y-64351471D01*
X47451407Y-64357976D01*
X47451420Y-64357977D01*
X47500005Y-64357977D01*
X47500005Y-63849977D01*
X46992005Y-63849977D01*
X45897071Y-63849977D01*
X45810093Y-63774611D01*
X45786765Y-63763957D01*
X45733110Y-63717465D01*
X45713108Y-63649344D01*
X45733110Y-63581223D01*
X45756597Y-63554119D01*
X45783144Y-63531116D01*
X45783144Y-63531115D01*
X45783145Y-63531115D01*
X45830210Y-63457879D01*
X45883867Y-63411386D01*
X45936209Y-63400000D01*
X46952006Y-63400000D01*
X47968139Y-63400000D01*
X47988619Y-63423635D01*
G37*
%TD.AperFunction*%
%TD*%
%TA.AperFunction,Conductor*%
%TO.N,Board_0-/IN*%
G36*
X53199856Y-48209499D02*
G01*
X53201650Y-48209545D01*
X53271182Y-48211364D01*
X53274394Y-48211532D01*
X53343742Y-48216991D01*
X53346957Y-48217329D01*
X53415875Y-48226402D01*
X53419091Y-48226911D01*
X53487445Y-48239579D01*
X53490655Y-48240262D01*
X53558251Y-48256488D01*
X53561433Y-48257340D01*
X53628141Y-48277100D01*
X53631253Y-48278112D01*
X53696779Y-48301318D01*
X53699858Y-48302500D01*
X53764070Y-48329099D01*
X53767081Y-48330440D01*
X53777686Y-48335498D01*
X53829781Y-48360345D01*
X53832661Y-48361812D01*
X53893777Y-48394995D01*
X53896621Y-48396638D01*
X53955931Y-48432983D01*
X53958697Y-48434780D01*
X53987525Y-48454592D01*
X54032336Y-48509660D01*
X54040261Y-48580213D01*
X54008785Y-48643850D01*
X53998671Y-48653656D01*
X53981124Y-48668860D01*
X53981123Y-48668861D01*
X53903315Y-48789934D01*
X53862768Y-48928026D01*
X53862768Y-49071949D01*
X53903315Y-49210041D01*
X53981123Y-49331114D01*
X53981124Y-49331115D01*
X53981125Y-49331116D01*
X54089895Y-49425365D01*
X54113231Y-49436022D01*
X54166887Y-49482514D01*
X54186890Y-49550634D01*
X54166889Y-49618755D01*
X54143404Y-49645859D01*
X54116862Y-49668858D01*
X54116860Y-49668860D01*
X54101911Y-49692122D01*
X54048255Y-49738614D01*
X53995914Y-49750000D01*
X52960219Y-49750000D01*
X52960141Y-49749977D01*
X52026005Y-49749977D01*
X51957884Y-49729975D01*
X51950000Y-49720876D01*
X51950000Y-48741977D01*
X52400005Y-48741977D01*
X52400005Y-49249977D01*
X52908005Y-49249977D01*
X52908005Y-49201391D01*
X52908004Y-49201379D01*
X52901499Y-49140883D01*
X52850449Y-49004012D01*
X52850449Y-49004011D01*
X52762909Y-48887072D01*
X52645970Y-48799532D01*
X52509098Y-48748482D01*
X52448602Y-48741977D01*
X52400005Y-48741977D01*
X51950000Y-48741977D01*
X51950000Y-48335498D01*
X51970002Y-48267377D01*
X52023658Y-48220884D01*
X52075997Y-48209498D01*
X53199854Y-48209498D01*
X53199856Y-48209499D01*
G37*
%TD.AperFunction*%
%TD*%
%TA.AperFunction,Conductor*%
%TO.N,Board_3-/-*%
G36*
X48875389Y-69860329D02*
G01*
X48942835Y-69882482D01*
X48960481Y-69897170D01*
X49115585Y-70052274D01*
X49131973Y-70072454D01*
X49137935Y-70081579D01*
X49137937Y-70081582D01*
X49166226Y-70103600D01*
X49172083Y-70108773D01*
X49174880Y-70111570D01*
X49174886Y-70111575D01*
X49174892Y-70111581D01*
X49174898Y-70111585D01*
X49194100Y-70125296D01*
X49231129Y-70154116D01*
X49237886Y-70159375D01*
X49237890Y-70159376D01*
X49244874Y-70163156D01*
X49252028Y-70166654D01*
X49305186Y-70182479D01*
X49305187Y-70182479D01*
X49357678Y-70200500D01*
X49357682Y-70200500D01*
X49365516Y-70201807D01*
X49373414Y-70202791D01*
X49373415Y-70202792D01*
X49373415Y-70202791D01*
X49373416Y-70202792D01*
X49428841Y-70200500D01*
X50511621Y-70200500D01*
X50579742Y-70220502D01*
X50600716Y-70237405D01*
X50794562Y-70431251D01*
X50810950Y-70451431D01*
X50816912Y-70460556D01*
X50816914Y-70460559D01*
X50845203Y-70482577D01*
X50851060Y-70487750D01*
X50853861Y-70490551D01*
X50853865Y-70490554D01*
X50853868Y-70490557D01*
X50873075Y-70504270D01*
X50916863Y-70538352D01*
X50923841Y-70542128D01*
X50930997Y-70545626D01*
X50931002Y-70545630D01*
X50931007Y-70545631D01*
X50940307Y-70550178D01*
X50989734Y-70593372D01*
X51016521Y-70633461D01*
X51016522Y-70633462D01*
X51100702Y-70689710D01*
X51100704Y-70689711D01*
X51174938Y-70704477D01*
X51725071Y-70704476D01*
X51725074Y-70704475D01*
X51725078Y-70704475D01*
X51774331Y-70694678D01*
X51799306Y-70689711D01*
X51883489Y-70633461D01*
X51939739Y-70549278D01*
X51954505Y-70475044D01*
X51954504Y-70088140D01*
X51974506Y-70020022D01*
X52028161Y-69973529D01*
X52084495Y-69962206D01*
X54186350Y-70028931D01*
X54253800Y-70051085D01*
X54288348Y-70086747D01*
X54316861Y-70131114D01*
X54343407Y-70154116D01*
X54381791Y-70213842D01*
X54381791Y-70284839D01*
X54343408Y-70344565D01*
X54313241Y-70363953D01*
X54289908Y-70374609D01*
X54289905Y-70374611D01*
X54181134Y-70468861D01*
X54103326Y-70589934D01*
X54062779Y-70728026D01*
X54062779Y-70871949D01*
X54103326Y-71010041D01*
X54146132Y-71076649D01*
X54166134Y-71144769D01*
X54146132Y-71212890D01*
X54121964Y-71240580D01*
X54076296Y-71279584D01*
X54073732Y-71281661D01*
X54018602Y-71323962D01*
X54015934Y-71325900D01*
X53958691Y-71365242D01*
X53955924Y-71367039D01*
X53896669Y-71403350D01*
X53893815Y-71404998D01*
X53832740Y-71438162D01*
X53829799Y-71439661D01*
X53767080Y-71469577D01*
X53764066Y-71470919D01*
X53699797Y-71497541D01*
X53696717Y-71498723D01*
X53631272Y-71521898D01*
X53628136Y-71522917D01*
X53561470Y-71542666D01*
X53558283Y-71543520D01*
X53490740Y-71559737D01*
X53487513Y-71560423D01*
X53419152Y-71573094D01*
X53415892Y-71573611D01*
X53346938Y-71582688D01*
X53343656Y-71583033D01*
X53274386Y-71588483D01*
X53271093Y-71588656D01*
X53199847Y-71590521D01*
X48676000Y-71590505D01*
X48607879Y-71570503D01*
X48561386Y-71516847D01*
X48550000Y-71464505D01*
X48550000Y-69980063D01*
X48570002Y-69911942D01*
X48623658Y-69865449D01*
X48679994Y-69854126D01*
X48875389Y-69860329D01*
G37*
%TD.AperFunction*%
%TD*%
%TA.AperFunction,Conductor*%
%TO.N,Board_2-/-*%
G36*
X48775389Y-63260329D02*
G01*
X48842835Y-63282482D01*
X48860481Y-63297170D01*
X49015585Y-63452274D01*
X49031973Y-63472454D01*
X49037935Y-63481579D01*
X49037937Y-63481582D01*
X49066226Y-63503600D01*
X49072083Y-63508773D01*
X49074880Y-63511570D01*
X49074886Y-63511575D01*
X49074892Y-63511581D01*
X49074898Y-63511585D01*
X49094100Y-63525296D01*
X49131129Y-63554116D01*
X49137886Y-63559375D01*
X49137890Y-63559376D01*
X49144874Y-63563156D01*
X49152028Y-63566654D01*
X49205187Y-63582479D01*
X49257678Y-63600500D01*
X49257682Y-63600500D01*
X49265516Y-63601807D01*
X49273414Y-63602791D01*
X49273415Y-63602792D01*
X49273415Y-63602791D01*
X49273416Y-63602792D01*
X49328841Y-63600500D01*
X50411621Y-63600500D01*
X50479742Y-63620502D01*
X50500716Y-63637405D01*
X50694562Y-63831251D01*
X50710950Y-63851431D01*
X50716912Y-63860556D01*
X50716914Y-63860559D01*
X50745203Y-63882577D01*
X50751060Y-63887750D01*
X50753861Y-63890551D01*
X50753865Y-63890554D01*
X50753868Y-63890557D01*
X50773075Y-63904270D01*
X50816863Y-63938352D01*
X50823841Y-63942128D01*
X50830997Y-63945626D01*
X50831002Y-63945630D01*
X50831007Y-63945631D01*
X50840307Y-63950178D01*
X50889734Y-63993372D01*
X50916521Y-64033461D01*
X50916522Y-64033462D01*
X51000702Y-64089710D01*
X51000704Y-64089711D01*
X51074938Y-64104477D01*
X51625071Y-64104476D01*
X51625074Y-64104475D01*
X51625078Y-64104475D01*
X51674331Y-64094678D01*
X51699306Y-64089711D01*
X51783489Y-64033461D01*
X51839739Y-63949278D01*
X51854505Y-63875044D01*
X51854504Y-63488140D01*
X51874506Y-63420022D01*
X51928161Y-63373529D01*
X51984495Y-63362206D01*
X54086350Y-63428931D01*
X54153800Y-63451085D01*
X54188348Y-63486747D01*
X54216861Y-63531114D01*
X54243407Y-63554116D01*
X54281791Y-63613842D01*
X54281791Y-63684839D01*
X54243408Y-63744565D01*
X54213241Y-63763953D01*
X54189908Y-63774609D01*
X54189905Y-63774611D01*
X54081134Y-63868861D01*
X54003326Y-63989934D01*
X53962779Y-64128026D01*
X53962779Y-64271949D01*
X54003326Y-64410041D01*
X54080812Y-64530613D01*
X54100814Y-64598734D01*
X54080812Y-64666854D01*
X54051517Y-64698696D01*
X54018621Y-64723938D01*
X54015951Y-64725878D01*
X53958654Y-64765256D01*
X53955888Y-64767052D01*
X53896623Y-64803370D01*
X53893766Y-64805019D01*
X53832706Y-64838171D01*
X53829767Y-64839669D01*
X53767080Y-64869569D01*
X53764065Y-64870911D01*
X53699795Y-64897532D01*
X53696717Y-64898713D01*
X53631274Y-64921889D01*
X53628137Y-64922908D01*
X53561467Y-64942658D01*
X53558280Y-64943512D01*
X53490739Y-64959728D01*
X53487512Y-64960414D01*
X53419108Y-64973093D01*
X53415849Y-64973609D01*
X53346979Y-64982675D01*
X53343707Y-64983019D01*
X53274429Y-64988473D01*
X53271144Y-64988645D01*
X53199847Y-64990511D01*
X48576000Y-64990503D01*
X48507879Y-64970501D01*
X48461386Y-64916845D01*
X48450000Y-64864503D01*
X48450000Y-63380063D01*
X48470002Y-63311942D01*
X48523658Y-63265449D01*
X48579994Y-63254126D01*
X48775389Y-63260329D01*
G37*
%TD.AperFunction*%
%TD*%
%TA.AperFunction,Conductor*%
%TO.N,Board_1-/OUT*%
G36*
X47988614Y-56823635D02*
G01*
X48000000Y-56875977D01*
X48000000Y-57757978D01*
X48013090Y-57771068D01*
X48047116Y-57833380D01*
X48049995Y-57860163D01*
X48049995Y-58264500D01*
X48029993Y-58332621D01*
X47976337Y-58379114D01*
X47923995Y-58390500D01*
X46800140Y-58390500D01*
X46728896Y-58388638D01*
X46725601Y-58388465D01*
X46656326Y-58383015D01*
X46653049Y-58382671D01*
X46618592Y-58378135D01*
X46584140Y-58373600D01*
X46580880Y-58373084D01*
X46512475Y-58360404D01*
X46509251Y-58359719D01*
X46441750Y-58343515D01*
X46438563Y-58342661D01*
X46371907Y-58322918D01*
X46368782Y-58321903D01*
X46339727Y-58311614D01*
X46303255Y-58298699D01*
X46300193Y-58297524D01*
X46235930Y-58270905D01*
X46232916Y-58269563D01*
X46170195Y-58239646D01*
X46167255Y-58238148D01*
X46106167Y-58204979D01*
X46103322Y-58203336D01*
X46044064Y-58167021D01*
X46041303Y-58165228D01*
X45984062Y-58125889D01*
X45981405Y-58123958D01*
X45948475Y-58098690D01*
X45906610Y-58041355D01*
X45902388Y-57970484D01*
X45919181Y-57930612D01*
X45996668Y-57810041D01*
X46037215Y-57671949D01*
X46037215Y-57528027D01*
X45996668Y-57389935D01*
X45918858Y-57268860D01*
X45897066Y-57249977D01*
X46992000Y-57249977D01*
X46992000Y-57298574D01*
X46998505Y-57359070D01*
X47049555Y-57495941D01*
X47049555Y-57495942D01*
X47137095Y-57612881D01*
X47254034Y-57700421D01*
X47390906Y-57751471D01*
X47451402Y-57757976D01*
X47451415Y-57757977D01*
X47500000Y-57757977D01*
X47500000Y-57249977D01*
X46992000Y-57249977D01*
X45897066Y-57249977D01*
X45810088Y-57174611D01*
X45786760Y-57163957D01*
X45733105Y-57117465D01*
X45713103Y-57049344D01*
X45733105Y-56981223D01*
X45756592Y-56954119D01*
X45783139Y-56931116D01*
X45783139Y-56931115D01*
X45783140Y-56931115D01*
X45830205Y-56857879D01*
X45883862Y-56811386D01*
X45936204Y-56800000D01*
X46952001Y-56800000D01*
X47968134Y-56800000D01*
X47988614Y-56823635D01*
G37*
%TD.AperFunction*%
%TD*%
%TA.AperFunction,Conductor*%
%TO.N,Board_3-/OUT*%
G36*
X48088619Y-70023635D02*
G01*
X48100005Y-70075977D01*
X48100005Y-70957978D01*
X48113094Y-70971067D01*
X48147120Y-71033379D01*
X48149999Y-71060162D01*
X48149999Y-71464503D01*
X48129997Y-71532624D01*
X48076341Y-71579117D01*
X48023999Y-71590503D01*
X46800121Y-71590500D01*
X46800119Y-71590500D01*
X46798075Y-71590447D01*
X46728895Y-71588655D01*
X46725585Y-71588482D01*
X46656331Y-71583033D01*
X46653048Y-71582688D01*
X46584077Y-71573608D01*
X46580820Y-71573092D01*
X46512546Y-71560439D01*
X46509319Y-71559753D01*
X46441746Y-71543531D01*
X46438560Y-71542677D01*
X46371909Y-71522936D01*
X46368769Y-71521916D01*
X46303203Y-71498697D01*
X46300125Y-71497515D01*
X46280736Y-71489484D01*
X46235903Y-71470913D01*
X46232924Y-71469586D01*
X46170212Y-71439673D01*
X46167275Y-71438176D01*
X46144957Y-71426059D01*
X46106201Y-71405016D01*
X46103394Y-71403396D01*
X46065577Y-71380222D01*
X46044050Y-71367030D01*
X46041281Y-71365232D01*
X46012432Y-71345404D01*
X45967623Y-71290334D01*
X45959701Y-71219781D01*
X45991179Y-71156144D01*
X46001293Y-71146340D01*
X46018863Y-71131116D01*
X46018864Y-71131114D01*
X46064462Y-71060162D01*
X46096673Y-71010041D01*
X46137220Y-70871949D01*
X46137220Y-70728027D01*
X46096673Y-70589935D01*
X46018863Y-70468860D01*
X45997071Y-70449977D01*
X47092005Y-70449977D01*
X47092005Y-70498574D01*
X47098510Y-70559070D01*
X47149560Y-70695941D01*
X47149560Y-70695942D01*
X47237100Y-70812881D01*
X47354039Y-70900421D01*
X47490911Y-70951471D01*
X47551407Y-70957976D01*
X47551420Y-70957977D01*
X47600005Y-70957977D01*
X47600005Y-70449977D01*
X47092005Y-70449977D01*
X45997071Y-70449977D01*
X45910093Y-70374611D01*
X45886765Y-70363957D01*
X45833110Y-70317465D01*
X45813108Y-70249344D01*
X45833110Y-70181223D01*
X45856597Y-70154119D01*
X45883144Y-70131116D01*
X45883144Y-70131115D01*
X45883145Y-70131115D01*
X45930210Y-70057879D01*
X45983867Y-70011386D01*
X46036209Y-70000000D01*
X47052006Y-70000000D01*
X48068139Y-70000000D01*
X48088619Y-70023635D01*
G37*
%TD.AperFunction*%
%TD*%
%TA.AperFunction,Conductor*%
%TO.N,Board_0-/+*%
G36*
X51324006Y-48209498D02*
G01*
X51392121Y-48229499D01*
X51438614Y-48283155D01*
X51450000Y-48335497D01*
X51450000Y-49624000D01*
X51429998Y-49692121D01*
X51376342Y-49738614D01*
X51324000Y-49750000D01*
X50834908Y-49750000D01*
X50766787Y-49729998D01*
X50761691Y-49726544D01*
X50747911Y-49716705D01*
X50704125Y-49682625D01*
X50697145Y-49678848D01*
X50689982Y-49675346D01*
X50636823Y-49659520D01*
X50584331Y-49641499D01*
X50576509Y-49640194D01*
X50568594Y-49639207D01*
X50513180Y-49641500D01*
X49430389Y-49641500D01*
X49362268Y-49621498D01*
X49341294Y-49604595D01*
X49091409Y-49354710D01*
X49057383Y-49292398D01*
X49054504Y-49265615D01*
X49054504Y-49224913D01*
X49054503Y-49224904D01*
X49039739Y-49150676D01*
X49039738Y-49150674D01*
X48983489Y-49066493D01*
X48983488Y-49066492D01*
X48899307Y-49010243D01*
X48825073Y-48995477D01*
X48274941Y-48995477D01*
X48274931Y-48995478D01*
X48200704Y-49010242D01*
X48116520Y-49066493D01*
X48060271Y-49150674D01*
X48045505Y-49224907D01*
X48045505Y-49224910D01*
X48045505Y-49499487D01*
X48045506Y-49624000D01*
X48025504Y-49692120D01*
X47971849Y-49738614D01*
X47919506Y-49750000D01*
X45804093Y-49750000D01*
X45735972Y-49729998D01*
X45698096Y-49692122D01*
X45683146Y-49668860D01*
X45656601Y-49645859D01*
X45618217Y-49586133D01*
X45618217Y-49515136D01*
X45656600Y-49455410D01*
X45686767Y-49436022D01*
X45710104Y-49425365D01*
X45818874Y-49331116D01*
X45896684Y-49210041D01*
X45937231Y-49071949D01*
X45937231Y-48928027D01*
X45896684Y-48789935D01*
X45853887Y-48723341D01*
X45833885Y-48655221D01*
X45853887Y-48587100D01*
X45878049Y-48559415D01*
X45923674Y-48520445D01*
X45926197Y-48518403D01*
X45981352Y-48476080D01*
X45984020Y-48474141D01*
X46041310Y-48434764D01*
X46044007Y-48433012D01*
X46103395Y-48396620D01*
X46106212Y-48394993D01*
X46167318Y-48361816D01*
X46170222Y-48360337D01*
X46232986Y-48330403D01*
X46235948Y-48329084D01*
X46300212Y-48302466D01*
X46303225Y-48301309D01*
X46368816Y-48278083D01*
X46371885Y-48277086D01*
X46438585Y-48257330D01*
X46441712Y-48256492D01*
X46509285Y-48240269D01*
X46512460Y-48239595D01*
X46580836Y-48226921D01*
X46584046Y-48226412D01*
X46653011Y-48217332D01*
X46656261Y-48216990D01*
X46725599Y-48211531D01*
X46728797Y-48211364D01*
X46800142Y-48209496D01*
X51324006Y-48209498D01*
G37*
%TD.AperFunction*%
%TD*%
M02*
