%TF.GenerationSoftware,KiCad,Pcbnew,7.0.7*%
%TF.CreationDate,2023-12-01T17:39:10+08:00*%
%TF.ProjectId,Adafruit LED Sequin-WithRails,41646166-7275-4697-9420-4c4544205365,rev?*%
%TF.SameCoordinates,Original*%
%TF.FileFunction,Copper,L2,Bot*%
%TF.FilePolarity,Positive*%
%FSLAX46Y46*%
G04 Gerber Fmt 4.6, Leading zero omitted, Abs format (unit mm)*
G04 Created by KiCad (PCBNEW 7.0.7) date 2023-12-01 17:39:10*
%MOMM*%
%LPD*%
G01*
G04 APERTURE LIST*
%TA.AperFunction,ViaPad*%
%ADD10C,0.800000*%
%TD*%
G04 APERTURE END LIST*
D10*
%TO.N,Board_0-/+*%
X46500000Y-49200000D03*
%TO.N,Board_0-/-*%
X53300000Y-50800000D03*
%TO.N,Board_0-/IN*%
X53300000Y-49200000D03*
%TO.N,Board_0-/OUT*%
X46500000Y-50800000D03*
%TO.N,Board_1-/+*%
X46599995Y-55800000D03*
%TO.N,Board_1-/-*%
X53399995Y-57400000D03*
%TO.N,Board_1-/IN*%
X53399995Y-55800000D03*
%TO.N,Board_1-/OUT*%
X46599995Y-57400000D03*
%TO.N,Board_2-/+*%
X46600000Y-62400000D03*
%TO.N,Board_2-/-*%
X53400000Y-64000000D03*
%TO.N,Board_2-/IN*%
X53400000Y-62400000D03*
%TO.N,Board_2-/OUT*%
X46600000Y-64000000D03*
%TO.N,Board_3-/+*%
X46700000Y-69000000D03*
%TO.N,Board_3-/-*%
X53500000Y-70600000D03*
%TO.N,Board_3-/IN*%
X53500000Y-69000000D03*
%TO.N,Board_3-/OUT*%
X46700000Y-70600000D03*
%TD*%
%TA.AperFunction,Conductor*%
%TO.N,Board_2-/IN*%
G36*
X53203469Y-61409594D02*
G01*
X53271100Y-61411377D01*
X53274350Y-61411548D01*
X53312415Y-61414543D01*
X53343656Y-61417001D01*
X53346909Y-61417341D01*
X53415927Y-61426428D01*
X53419149Y-61426939D01*
X53487518Y-61439612D01*
X53490722Y-61440292D01*
X53558253Y-61456505D01*
X53561424Y-61457355D01*
X53628078Y-61477098D01*
X53631216Y-61478118D01*
X53645192Y-61483067D01*
X53696780Y-61501335D01*
X53699842Y-61502511D01*
X53764078Y-61529120D01*
X53767074Y-61530454D01*
X53829783Y-61560364D01*
X53832660Y-61561829D01*
X53893795Y-61595023D01*
X53896591Y-61596636D01*
X53955888Y-61632973D01*
X53958634Y-61634756D01*
X53990887Y-61656922D01*
X54015951Y-61674148D01*
X54018621Y-61676087D01*
X54034314Y-61688128D01*
X54051489Y-61701308D01*
X54093356Y-61758645D01*
X54097578Y-61829516D01*
X54080784Y-61869390D01*
X54003314Y-61989937D01*
X53962767Y-62128026D01*
X53962767Y-62271949D01*
X54003315Y-62410041D01*
X54081123Y-62531114D01*
X54081124Y-62531115D01*
X54081125Y-62531116D01*
X54189895Y-62625365D01*
X54213231Y-62636022D01*
X54266887Y-62682514D01*
X54286890Y-62750634D01*
X54266889Y-62818755D01*
X54243404Y-62845859D01*
X54216862Y-62868858D01*
X54216860Y-62868860D01*
X54201911Y-62892122D01*
X54148255Y-62938614D01*
X54095914Y-62950000D01*
X52176000Y-62950000D01*
X52107879Y-62929998D01*
X52061386Y-62876342D01*
X52050000Y-62824000D01*
X52050000Y-61535501D01*
X52070002Y-61467380D01*
X52123658Y-61420887D01*
X52175994Y-61409502D01*
X53199872Y-61409500D01*
X53203469Y-61409594D01*
G37*
%TD.AperFunction*%
%TD*%
%TA.AperFunction,Conductor*%
%TO.N,Board_0-/-*%
G36*
X53986350Y-50228931D02*
G01*
X54053800Y-50251085D01*
X54088348Y-50286747D01*
X54116861Y-50331114D01*
X54143407Y-50354116D01*
X54181791Y-50413842D01*
X54181791Y-50484839D01*
X54143408Y-50544565D01*
X54113241Y-50563953D01*
X54089908Y-50574609D01*
X54089905Y-50574611D01*
X53981134Y-50668861D01*
X53903326Y-50789934D01*
X53862779Y-50928026D01*
X53862779Y-51071949D01*
X53903326Y-51210041D01*
X53981134Y-51331114D01*
X53998685Y-51346322D01*
X54037069Y-51406049D01*
X54037069Y-51477045D01*
X53998686Y-51536771D01*
X53987542Y-51545386D01*
X53958692Y-51565214D01*
X53955924Y-51567012D01*
X53896669Y-51603323D01*
X53893815Y-51604971D01*
X53832740Y-51638135D01*
X53829799Y-51639634D01*
X53767080Y-51669550D01*
X53764065Y-51670893D01*
X53699790Y-51697515D01*
X53696710Y-51698698D01*
X53631213Y-51721891D01*
X53628076Y-51722910D01*
X53591108Y-51733860D01*
X53561432Y-51742650D01*
X53558250Y-51743503D01*
X53490734Y-51759711D01*
X53487508Y-51760397D01*
X53419114Y-51773073D01*
X53415855Y-51773589D01*
X53346939Y-51782662D01*
X53343656Y-51783006D01*
X53274386Y-51788456D01*
X53271094Y-51788629D01*
X53199848Y-51790495D01*
X48476000Y-51790497D01*
X48407879Y-51770495D01*
X48361386Y-51716839D01*
X48350000Y-51664497D01*
X48350000Y-50180063D01*
X48370002Y-50111942D01*
X48423658Y-50065449D01*
X48479994Y-50054126D01*
X53986350Y-50228931D01*
G37*
%TD.AperFunction*%
%TD*%
%TA.AperFunction,Conductor*%
%TO.N,Board_3-/+*%
G36*
X51592120Y-68029507D02*
G01*
X51638613Y-68083162D01*
X51650000Y-68135505D01*
X51650000Y-69424000D01*
X51629998Y-69492121D01*
X51576342Y-69538614D01*
X51524000Y-69550000D01*
X46004093Y-69550000D01*
X45935972Y-69529998D01*
X45898096Y-69492122D01*
X45883146Y-69468860D01*
X45856601Y-69445859D01*
X45818217Y-69386133D01*
X45818217Y-69315136D01*
X45856600Y-69255410D01*
X45886767Y-69236022D01*
X45910104Y-69225365D01*
X46018874Y-69131116D01*
X46096684Y-69010041D01*
X46137231Y-68871949D01*
X46137231Y-68728027D01*
X46096684Y-68589935D01*
X46018874Y-68468860D01*
X46001340Y-68453667D01*
X45962957Y-68393942D01*
X45962957Y-68322945D01*
X46001340Y-68263219D01*
X46012466Y-68254617D01*
X46041365Y-68234756D01*
X46044091Y-68232987D01*
X46103379Y-68196657D01*
X46106210Y-68195022D01*
X46167315Y-68161845D01*
X46170186Y-68160381D01*
X46232943Y-68130448D01*
X46235897Y-68129133D01*
X46278576Y-68111456D01*
X46300192Y-68102503D01*
X46303240Y-68101331D01*
X46368771Y-68078125D01*
X46371805Y-68077139D01*
X46438514Y-68057377D01*
X46441673Y-68056531D01*
X46509348Y-68040283D01*
X46512481Y-68039617D01*
X46580920Y-68026934D01*
X46584085Y-68026432D01*
X46653099Y-68017347D01*
X46656312Y-68017011D01*
X46725567Y-68011561D01*
X46728819Y-68011390D01*
X46800141Y-68009522D01*
X51524002Y-68009505D01*
X51592120Y-68029507D01*
G37*
%TD.AperFunction*%
%TD*%
%TA.AperFunction,Conductor*%
%TO.N,Board_1-/IN*%
G36*
X53219498Y-54810015D02*
G01*
X53271150Y-54811371D01*
X53274386Y-54811540D01*
X53343745Y-54817000D01*
X53346957Y-54817338D01*
X53415875Y-54826411D01*
X53419091Y-54826920D01*
X53487445Y-54839588D01*
X53490655Y-54840271D01*
X53558251Y-54856497D01*
X53561433Y-54857349D01*
X53628141Y-54877109D01*
X53631253Y-54878121D01*
X53696779Y-54901327D01*
X53699858Y-54902509D01*
X53764070Y-54929108D01*
X53767081Y-54930449D01*
X53784175Y-54938602D01*
X53829781Y-54960354D01*
X53832661Y-54961821D01*
X53893777Y-54995004D01*
X53896621Y-54996647D01*
X53955931Y-55032992D01*
X53958697Y-55034788D01*
X54015933Y-55074124D01*
X54018590Y-55076054D01*
X54051489Y-55101298D01*
X54093357Y-55158635D01*
X54097579Y-55229506D01*
X54080784Y-55269381D01*
X54003310Y-55389934D01*
X53962763Y-55528026D01*
X53962763Y-55671949D01*
X54003310Y-55810041D01*
X54081118Y-55931114D01*
X54081119Y-55931115D01*
X54081120Y-55931116D01*
X54189890Y-56025365D01*
X54213226Y-56036022D01*
X54266882Y-56082514D01*
X54286885Y-56150634D01*
X54266884Y-56218755D01*
X54243399Y-56245859D01*
X54216857Y-56268858D01*
X54216855Y-56268860D01*
X54201906Y-56292122D01*
X54148250Y-56338614D01*
X54095909Y-56350000D01*
X52175995Y-56350000D01*
X52107874Y-56329998D01*
X52061381Y-56276342D01*
X52049995Y-56224000D01*
X52049995Y-54935500D01*
X52069997Y-54867379D01*
X52123653Y-54820886D01*
X52175991Y-54809500D01*
X53199845Y-54809500D01*
X53219498Y-54810015D01*
G37*
%TD.AperFunction*%
%TD*%
%TA.AperFunction,Conductor*%
%TO.N,Board_0-/OUT*%
G36*
X47892121Y-50220002D02*
G01*
X47938614Y-50273658D01*
X47950000Y-50326000D01*
X47950000Y-51664498D01*
X47929998Y-51732619D01*
X47876342Y-51779112D01*
X47824000Y-51790498D01*
X46800151Y-51790498D01*
X46798439Y-51790454D01*
X46728894Y-51788629D01*
X46725604Y-51788457D01*
X46656325Y-51783006D01*
X46653053Y-51782663D01*
X46608404Y-51776785D01*
X46584140Y-51773591D01*
X46580881Y-51773075D01*
X46512477Y-51760396D01*
X46509249Y-51759710D01*
X46441683Y-51743488D01*
X46438510Y-51742638D01*
X46402023Y-51731829D01*
X46371862Y-51722894D01*
X46368725Y-51721875D01*
X46303270Y-51698695D01*
X46300192Y-51697514D01*
X46235922Y-51670893D01*
X46232907Y-51669551D01*
X46170220Y-51639651D01*
X46167281Y-51638153D01*
X46106235Y-51605008D01*
X46103380Y-51603360D01*
X46044100Y-51567035D01*
X46041343Y-51565245D01*
X45984011Y-51525842D01*
X45981371Y-51523924D01*
X45926215Y-51481601D01*
X45923656Y-51479529D01*
X45889450Y-51450314D01*
X45878038Y-51440567D01*
X45839231Y-51381118D01*
X45838725Y-51310123D01*
X45853874Y-51276637D01*
X45896672Y-51210042D01*
X45896673Y-51210041D01*
X45937220Y-51071949D01*
X45937220Y-50928027D01*
X45896673Y-50789935D01*
X45818863Y-50668860D01*
X45710093Y-50574611D01*
X45686765Y-50563957D01*
X45633110Y-50517465D01*
X45613108Y-50449344D01*
X45633110Y-50381223D01*
X45656597Y-50354119D01*
X45683144Y-50331116D01*
X45683144Y-50331115D01*
X45683145Y-50331115D01*
X45730210Y-50257879D01*
X45783867Y-50211386D01*
X45836209Y-50200000D01*
X47824000Y-50200000D01*
X47892121Y-50220002D01*
G37*
%TD.AperFunction*%
%TD*%
%TA.AperFunction,Conductor*%
%TO.N,Board_2-/+*%
G36*
X51492121Y-61429505D02*
G01*
X51538614Y-61483160D01*
X51550000Y-61535503D01*
X51550000Y-62824000D01*
X51529998Y-62892121D01*
X51476342Y-62938614D01*
X51424000Y-62950000D01*
X45904093Y-62950000D01*
X45835972Y-62929998D01*
X45798096Y-62892122D01*
X45783146Y-62868860D01*
X45756601Y-62845859D01*
X45718217Y-62786133D01*
X45718217Y-62715136D01*
X45756600Y-62655410D01*
X45786767Y-62636022D01*
X45810104Y-62625365D01*
X45918874Y-62531116D01*
X45996684Y-62410041D01*
X46037231Y-62271949D01*
X46037231Y-62128027D01*
X45996684Y-61989935D01*
X45919211Y-61869384D01*
X45899209Y-61801264D01*
X45919211Y-61733143D01*
X45948497Y-61701308D01*
X45981436Y-61676034D01*
X45984033Y-61674147D01*
X46041316Y-61634779D01*
X46044037Y-61633012D01*
X46103350Y-61596663D01*
X46106143Y-61595050D01*
X46167255Y-61561868D01*
X46170179Y-61560378D01*
X46232927Y-61530447D01*
X46235903Y-61529122D01*
X46300225Y-61502479D01*
X46303238Y-61501323D01*
X46368816Y-61478101D01*
X46371885Y-61477104D01*
X46438573Y-61457352D01*
X46441733Y-61456505D01*
X46490460Y-61444807D01*
X46509251Y-61440297D01*
X46512475Y-61439612D01*
X46535336Y-61435374D01*
X46580912Y-61426926D01*
X46584108Y-61426421D01*
X46653087Y-61417340D01*
X46656288Y-61417003D01*
X46725623Y-61411549D01*
X46728859Y-61411379D01*
X46798164Y-61409564D01*
X46800141Y-61409513D01*
X46800156Y-61409512D01*
X51424002Y-61409503D01*
X51492121Y-61429505D01*
G37*
%TD.AperFunction*%
%TD*%
%TA.AperFunction,Conductor*%
%TO.N,Board_3-/IN*%
G36*
X53271107Y-68011388D02*
G01*
X53274380Y-68011560D01*
X53343656Y-68017010D01*
X53346939Y-68017355D01*
X53359033Y-68018947D01*
X53415908Y-68026434D01*
X53419152Y-68026949D01*
X53487513Y-68039620D01*
X53490736Y-68040305D01*
X53558298Y-68056527D01*
X53561464Y-68057375D01*
X53564599Y-68058304D01*
X53628136Y-68077126D01*
X53631264Y-68078142D01*
X53696755Y-68101334D01*
X53699765Y-68102490D01*
X53764066Y-68129124D01*
X53767074Y-68130463D01*
X53829810Y-68160387D01*
X53832740Y-68161881D01*
X53893815Y-68195045D01*
X53896669Y-68196693D01*
X53913930Y-68207270D01*
X53955949Y-68233020D01*
X53958674Y-68234790D01*
X53990847Y-68256901D01*
X54015934Y-68274143D01*
X54018590Y-68276072D01*
X54073734Y-68318384D01*
X54076283Y-68320448D01*
X54121930Y-68359436D01*
X54160738Y-68418886D01*
X54161244Y-68489881D01*
X54146097Y-68523365D01*
X54103314Y-68589937D01*
X54062768Y-68728026D01*
X54062768Y-68871949D01*
X54103315Y-69010041D01*
X54181123Y-69131114D01*
X54181124Y-69131115D01*
X54181125Y-69131116D01*
X54289895Y-69225365D01*
X54313231Y-69236022D01*
X54366887Y-69282514D01*
X54386890Y-69350634D01*
X54366889Y-69418755D01*
X54343404Y-69445859D01*
X54316862Y-69468858D01*
X54316860Y-69468860D01*
X54301911Y-69492122D01*
X54248255Y-69538614D01*
X54195914Y-69550000D01*
X52276000Y-69550000D01*
X52207879Y-69529998D01*
X52161386Y-69476342D01*
X52150000Y-69424000D01*
X52150000Y-68135502D01*
X52170002Y-68067381D01*
X52223658Y-68020888D01*
X52275993Y-68009503D01*
X53199861Y-68009500D01*
X53271107Y-68011388D01*
G37*
%TD.AperFunction*%
%TD*%
%TA.AperFunction,Conductor*%
%TO.N,Board_1-/+*%
G36*
X51492115Y-54829503D02*
G01*
X51538608Y-54883159D01*
X51549994Y-54935501D01*
X51549995Y-56224000D01*
X51529993Y-56292121D01*
X51476337Y-56338614D01*
X51423995Y-56350000D01*
X45904088Y-56350000D01*
X45835967Y-56329998D01*
X45798091Y-56292122D01*
X45783141Y-56268860D01*
X45756596Y-56245859D01*
X45718212Y-56186133D01*
X45718212Y-56115136D01*
X45756595Y-56055410D01*
X45786762Y-56036022D01*
X45810099Y-56025365D01*
X45918869Y-55931116D01*
X45996679Y-55810041D01*
X46037226Y-55671949D01*
X46037226Y-55528027D01*
X45996679Y-55389935D01*
X45919203Y-55269380D01*
X45899202Y-55201261D01*
X45919204Y-55133140D01*
X45948496Y-55101301D01*
X45981353Y-55076088D01*
X45984020Y-55074150D01*
X46005892Y-55059117D01*
X46041300Y-55034780D01*
X46044034Y-55033005D01*
X46103422Y-54996612D01*
X46106172Y-54995024D01*
X46167317Y-54961826D01*
X46170200Y-54960357D01*
X46232920Y-54930441D01*
X46235911Y-54929109D01*
X46300120Y-54902511D01*
X46303201Y-54901329D01*
X46335970Y-54889723D01*
X46368749Y-54878116D01*
X46371879Y-54877100D01*
X46384147Y-54873465D01*
X46438559Y-54857347D01*
X46441731Y-54856498D01*
X46509332Y-54840271D01*
X46512535Y-54839589D01*
X46580902Y-54826919D01*
X46584106Y-54826412D01*
X46653034Y-54817338D01*
X46656241Y-54817000D01*
X46725597Y-54811541D01*
X46728796Y-54811373D01*
X46800141Y-54809504D01*
X51423994Y-54809501D01*
X51492115Y-54829503D01*
G37*
%TD.AperFunction*%
%TD*%
%TA.AperFunction,Conductor*%
%TO.N,Board_1-/-*%
G36*
X54086345Y-56828931D02*
G01*
X54153795Y-56851085D01*
X54188343Y-56886747D01*
X54216856Y-56931114D01*
X54243402Y-56954116D01*
X54281786Y-57013842D01*
X54281786Y-57084839D01*
X54243403Y-57144565D01*
X54213236Y-57163953D01*
X54189903Y-57174609D01*
X54189900Y-57174611D01*
X54081129Y-57268861D01*
X54003321Y-57389934D01*
X53962773Y-57528026D01*
X53962773Y-57671949D01*
X54003320Y-57810039D01*
X54080805Y-57930608D01*
X54100807Y-57998729D01*
X54080805Y-58066850D01*
X54051511Y-58098691D01*
X54018621Y-58123929D01*
X54015951Y-58125868D01*
X53958654Y-58165247D01*
X53955888Y-58167043D01*
X53896623Y-58203361D01*
X53893766Y-58205010D01*
X53832706Y-58238162D01*
X53829767Y-58239660D01*
X53767080Y-58269560D01*
X53764065Y-58270902D01*
X53699795Y-58297523D01*
X53696717Y-58298704D01*
X53631274Y-58321880D01*
X53628137Y-58322899D01*
X53561467Y-58342649D01*
X53558280Y-58343503D01*
X53490739Y-58359719D01*
X53487512Y-58360405D01*
X53419108Y-58373084D01*
X53415849Y-58373600D01*
X53346979Y-58382666D01*
X53343707Y-58383010D01*
X53274429Y-58388464D01*
X53271144Y-58388636D01*
X53199846Y-58390503D01*
X48575995Y-58390500D01*
X48507874Y-58370498D01*
X48461381Y-58316842D01*
X48449995Y-58264500D01*
X48449995Y-56780063D01*
X48469997Y-56711942D01*
X48523653Y-56665449D01*
X48579989Y-56654126D01*
X54086345Y-56828931D01*
G37*
%TD.AperFunction*%
%TD*%
%TA.AperFunction,Conductor*%
%TO.N,Board_2-/OUT*%
G36*
X47992121Y-63420002D02*
G01*
X48038614Y-63473658D01*
X48050000Y-63526000D01*
X48050000Y-64864501D01*
X48029998Y-64932622D01*
X47976342Y-64979115D01*
X47924000Y-64990501D01*
X46800131Y-64990500D01*
X46728905Y-64988647D01*
X46725605Y-64988475D01*
X46719167Y-64987968D01*
X46656325Y-64983024D01*
X46653053Y-64982681D01*
X46608404Y-64976803D01*
X46584140Y-64973609D01*
X46580880Y-64973093D01*
X46512475Y-64960413D01*
X46509251Y-64959728D01*
X46441750Y-64943524D01*
X46438563Y-64942670D01*
X46371907Y-64922927D01*
X46368782Y-64921912D01*
X46339727Y-64911623D01*
X46303255Y-64898708D01*
X46300193Y-64897533D01*
X46235930Y-64870914D01*
X46232916Y-64869572D01*
X46170195Y-64839655D01*
X46167255Y-64838157D01*
X46106167Y-64804988D01*
X46103322Y-64803345D01*
X46044064Y-64767030D01*
X46041303Y-64765237D01*
X45984062Y-64725897D01*
X45981391Y-64723957D01*
X45948475Y-64698699D01*
X45906609Y-64641361D01*
X45902388Y-64570489D01*
X45919181Y-64530620D01*
X45996673Y-64410041D01*
X46037220Y-64271949D01*
X46037220Y-64128027D01*
X45996673Y-63989935D01*
X45918863Y-63868860D01*
X45810093Y-63774611D01*
X45786765Y-63763957D01*
X45733110Y-63717465D01*
X45713108Y-63649344D01*
X45733110Y-63581223D01*
X45756597Y-63554119D01*
X45783144Y-63531116D01*
X45783144Y-63531115D01*
X45783145Y-63531115D01*
X45830210Y-63457879D01*
X45883867Y-63411386D01*
X45936209Y-63400000D01*
X47924000Y-63400000D01*
X47992121Y-63420002D01*
G37*
%TD.AperFunction*%
%TD*%
%TA.AperFunction,Conductor*%
%TO.N,Board_0-/IN*%
G36*
X53199856Y-48209499D02*
G01*
X53201650Y-48209545D01*
X53271182Y-48211364D01*
X53274394Y-48211532D01*
X53343742Y-48216991D01*
X53346957Y-48217329D01*
X53415875Y-48226402D01*
X53419091Y-48226911D01*
X53487445Y-48239579D01*
X53490655Y-48240262D01*
X53558251Y-48256488D01*
X53561433Y-48257340D01*
X53628141Y-48277100D01*
X53631253Y-48278112D01*
X53696779Y-48301318D01*
X53699858Y-48302500D01*
X53764070Y-48329099D01*
X53767081Y-48330440D01*
X53777686Y-48335498D01*
X53829781Y-48360345D01*
X53832661Y-48361812D01*
X53893777Y-48394995D01*
X53896621Y-48396638D01*
X53955931Y-48432983D01*
X53958697Y-48434780D01*
X53987525Y-48454592D01*
X54032336Y-48509660D01*
X54040261Y-48580213D01*
X54008785Y-48643850D01*
X53998671Y-48653656D01*
X53981124Y-48668860D01*
X53981123Y-48668861D01*
X53903315Y-48789934D01*
X53862768Y-48928026D01*
X53862768Y-49071949D01*
X53903315Y-49210041D01*
X53981123Y-49331114D01*
X53981124Y-49331115D01*
X53981125Y-49331116D01*
X54089895Y-49425365D01*
X54113231Y-49436022D01*
X54166887Y-49482514D01*
X54186890Y-49550634D01*
X54166889Y-49618755D01*
X54143404Y-49645859D01*
X54116862Y-49668858D01*
X54116860Y-49668860D01*
X54101911Y-49692122D01*
X54048255Y-49738614D01*
X53995914Y-49750000D01*
X52076000Y-49750000D01*
X52007879Y-49729998D01*
X51961386Y-49676342D01*
X51950000Y-49624000D01*
X51950000Y-48335498D01*
X51970002Y-48267377D01*
X52023658Y-48220884D01*
X52075997Y-48209498D01*
X53199854Y-48209498D01*
X53199856Y-48209499D01*
G37*
%TD.AperFunction*%
%TD*%
%TA.AperFunction,Conductor*%
%TO.N,Board_3-/-*%
G36*
X54186350Y-70028931D02*
G01*
X54253800Y-70051085D01*
X54288348Y-70086747D01*
X54316861Y-70131114D01*
X54343407Y-70154116D01*
X54381791Y-70213842D01*
X54381791Y-70284839D01*
X54343408Y-70344565D01*
X54313241Y-70363953D01*
X54289908Y-70374609D01*
X54289905Y-70374611D01*
X54181134Y-70468861D01*
X54103326Y-70589934D01*
X54062779Y-70728026D01*
X54062779Y-70871949D01*
X54103326Y-71010041D01*
X54146132Y-71076649D01*
X54166134Y-71144769D01*
X54146132Y-71212890D01*
X54121964Y-71240580D01*
X54076296Y-71279584D01*
X54073732Y-71281661D01*
X54018602Y-71323962D01*
X54015934Y-71325900D01*
X53958691Y-71365242D01*
X53955924Y-71367039D01*
X53896669Y-71403350D01*
X53893815Y-71404998D01*
X53832740Y-71438162D01*
X53829799Y-71439661D01*
X53767080Y-71469577D01*
X53764066Y-71470919D01*
X53699797Y-71497541D01*
X53696717Y-71498723D01*
X53631272Y-71521898D01*
X53628136Y-71522917D01*
X53561470Y-71542666D01*
X53558283Y-71543520D01*
X53490740Y-71559737D01*
X53487513Y-71560423D01*
X53419152Y-71573094D01*
X53415892Y-71573611D01*
X53346938Y-71582688D01*
X53343656Y-71583033D01*
X53274386Y-71588483D01*
X53271093Y-71588656D01*
X53199847Y-71590521D01*
X48676000Y-71590505D01*
X48607879Y-71570503D01*
X48561386Y-71516847D01*
X48550000Y-71464505D01*
X48550000Y-69980063D01*
X48570002Y-69911942D01*
X48623658Y-69865449D01*
X48679994Y-69854126D01*
X54186350Y-70028931D01*
G37*
%TD.AperFunction*%
%TD*%
%TA.AperFunction,Conductor*%
%TO.N,Board_2-/-*%
G36*
X54086350Y-63428931D02*
G01*
X54153800Y-63451085D01*
X54188348Y-63486747D01*
X54216861Y-63531114D01*
X54243407Y-63554116D01*
X54281791Y-63613842D01*
X54281791Y-63684839D01*
X54243408Y-63744565D01*
X54213241Y-63763953D01*
X54189908Y-63774609D01*
X54189905Y-63774611D01*
X54081134Y-63868861D01*
X54003326Y-63989934D01*
X53962779Y-64128026D01*
X53962779Y-64271949D01*
X54003326Y-64410041D01*
X54080812Y-64530613D01*
X54100814Y-64598734D01*
X54080812Y-64666854D01*
X54051517Y-64698696D01*
X54018621Y-64723938D01*
X54015951Y-64725878D01*
X53958654Y-64765256D01*
X53955888Y-64767052D01*
X53896623Y-64803370D01*
X53893766Y-64805019D01*
X53832706Y-64838171D01*
X53829767Y-64839669D01*
X53767080Y-64869569D01*
X53764065Y-64870911D01*
X53699795Y-64897532D01*
X53696717Y-64898713D01*
X53631274Y-64921889D01*
X53628137Y-64922908D01*
X53561467Y-64942658D01*
X53558280Y-64943512D01*
X53490739Y-64959728D01*
X53487512Y-64960414D01*
X53419108Y-64973093D01*
X53415849Y-64973609D01*
X53346979Y-64982675D01*
X53343707Y-64983019D01*
X53274429Y-64988473D01*
X53271144Y-64988645D01*
X53199847Y-64990511D01*
X48576000Y-64990503D01*
X48507879Y-64970501D01*
X48461386Y-64916845D01*
X48450000Y-64864503D01*
X48450000Y-63380063D01*
X48470002Y-63311942D01*
X48523658Y-63265449D01*
X48579994Y-63254126D01*
X54086350Y-63428931D01*
G37*
%TD.AperFunction*%
%TD*%
%TA.AperFunction,Conductor*%
%TO.N,Board_1-/OUT*%
G36*
X47992116Y-56820002D02*
G01*
X48038609Y-56873658D01*
X48049995Y-56926000D01*
X48049995Y-58264500D01*
X48029993Y-58332621D01*
X47976337Y-58379114D01*
X47923995Y-58390500D01*
X46800140Y-58390500D01*
X46728896Y-58388638D01*
X46725601Y-58388465D01*
X46656326Y-58383015D01*
X46653049Y-58382671D01*
X46618592Y-58378135D01*
X46584140Y-58373600D01*
X46580880Y-58373084D01*
X46512475Y-58360404D01*
X46509251Y-58359719D01*
X46441750Y-58343515D01*
X46438563Y-58342661D01*
X46371907Y-58322918D01*
X46368782Y-58321903D01*
X46339727Y-58311614D01*
X46303255Y-58298699D01*
X46300193Y-58297524D01*
X46235930Y-58270905D01*
X46232916Y-58269563D01*
X46170195Y-58239646D01*
X46167255Y-58238148D01*
X46106167Y-58204979D01*
X46103322Y-58203336D01*
X46044064Y-58167021D01*
X46041303Y-58165228D01*
X45984062Y-58125889D01*
X45981405Y-58123958D01*
X45948475Y-58098690D01*
X45906610Y-58041355D01*
X45902388Y-57970484D01*
X45919181Y-57930612D01*
X45996668Y-57810041D01*
X46037215Y-57671949D01*
X46037215Y-57528027D01*
X45996668Y-57389935D01*
X45918858Y-57268860D01*
X45810088Y-57174611D01*
X45786760Y-57163957D01*
X45733105Y-57117465D01*
X45713103Y-57049344D01*
X45733105Y-56981223D01*
X45756592Y-56954119D01*
X45783139Y-56931116D01*
X45783139Y-56931115D01*
X45783140Y-56931115D01*
X45830205Y-56857879D01*
X45883862Y-56811386D01*
X45936204Y-56800000D01*
X47923995Y-56800000D01*
X47992116Y-56820002D01*
G37*
%TD.AperFunction*%
%TD*%
%TA.AperFunction,Conductor*%
%TO.N,Board_3-/OUT*%
G36*
X48092121Y-70020002D02*
G01*
X48138614Y-70073658D01*
X48150000Y-70126000D01*
X48150000Y-71464503D01*
X48129998Y-71532624D01*
X48076342Y-71579117D01*
X48024000Y-71590503D01*
X46800121Y-71590500D01*
X46800119Y-71590500D01*
X46798075Y-71590447D01*
X46728895Y-71588655D01*
X46725585Y-71588482D01*
X46656331Y-71583033D01*
X46653048Y-71582688D01*
X46584077Y-71573608D01*
X46580820Y-71573092D01*
X46512546Y-71560439D01*
X46509319Y-71559753D01*
X46441746Y-71543531D01*
X46438560Y-71542677D01*
X46371909Y-71522936D01*
X46368769Y-71521916D01*
X46303203Y-71498697D01*
X46300125Y-71497515D01*
X46280736Y-71489484D01*
X46235903Y-71470913D01*
X46232924Y-71469586D01*
X46170212Y-71439673D01*
X46167275Y-71438176D01*
X46144957Y-71426059D01*
X46106201Y-71405016D01*
X46103394Y-71403396D01*
X46065577Y-71380222D01*
X46044050Y-71367030D01*
X46041281Y-71365232D01*
X46012432Y-71345404D01*
X45967623Y-71290334D01*
X45959701Y-71219781D01*
X45991179Y-71156144D01*
X46001293Y-71146340D01*
X46018863Y-71131116D01*
X46018864Y-71131114D01*
X46096673Y-71010041D01*
X46137220Y-70871949D01*
X46137220Y-70728027D01*
X46096673Y-70589935D01*
X46018863Y-70468860D01*
X45910093Y-70374611D01*
X45886765Y-70363957D01*
X45833110Y-70317465D01*
X45813108Y-70249344D01*
X45833110Y-70181223D01*
X45856597Y-70154119D01*
X45883144Y-70131116D01*
X45883144Y-70131115D01*
X45883145Y-70131115D01*
X45930210Y-70057879D01*
X45983867Y-70011386D01*
X46036209Y-70000000D01*
X48024000Y-70000000D01*
X48092121Y-70020002D01*
G37*
%TD.AperFunction*%
%TD*%
%TA.AperFunction,Conductor*%
%TO.N,Board_0-/+*%
G36*
X51324006Y-48209498D02*
G01*
X51392121Y-48229499D01*
X51438614Y-48283155D01*
X51450000Y-48335497D01*
X51450000Y-49624000D01*
X51429998Y-49692121D01*
X51376342Y-49738614D01*
X51324000Y-49750000D01*
X45804093Y-49750000D01*
X45735972Y-49729998D01*
X45698096Y-49692122D01*
X45683146Y-49668860D01*
X45656601Y-49645859D01*
X45618217Y-49586133D01*
X45618217Y-49515136D01*
X45656600Y-49455410D01*
X45686767Y-49436022D01*
X45710104Y-49425365D01*
X45818874Y-49331116D01*
X45896684Y-49210041D01*
X45937231Y-49071949D01*
X45937231Y-48928027D01*
X45896684Y-48789935D01*
X45853887Y-48723341D01*
X45833885Y-48655221D01*
X45853887Y-48587100D01*
X45878049Y-48559415D01*
X45923674Y-48520445D01*
X45926197Y-48518403D01*
X45981352Y-48476080D01*
X45984020Y-48474141D01*
X46041310Y-48434764D01*
X46044007Y-48433012D01*
X46103395Y-48396620D01*
X46106212Y-48394993D01*
X46167318Y-48361816D01*
X46170222Y-48360337D01*
X46232986Y-48330403D01*
X46235948Y-48329084D01*
X46300212Y-48302466D01*
X46303225Y-48301309D01*
X46368816Y-48278083D01*
X46371885Y-48277086D01*
X46438585Y-48257330D01*
X46441712Y-48256492D01*
X46509285Y-48240269D01*
X46512460Y-48239595D01*
X46580836Y-48226921D01*
X46584046Y-48226412D01*
X46653011Y-48217332D01*
X46656261Y-48216990D01*
X46725599Y-48211531D01*
X46728797Y-48211364D01*
X46800142Y-48209496D01*
X51324006Y-48209498D01*
G37*
%TD.AperFunction*%
%TD*%
M02*
