M48
; DRILL file {KiCad 7.0.7} date 2023 December 01, Friday 17:15:55
; FORMAT={-:-/ absolute / inch / decimal}
; #@! TF.CreationDate,2023-12-01T17:15:55+08:00
; #@! TF.GenerationSoftware,Kicad,Pcbnew,7.0.7
; #@! TF.FileFunction,NonPlated,1,2,NPTH
FMAT,2
INCH
; #@! TA.AperFunction,NonPlated,NPTH,ComponentDrill
T1C0.0197
%
G90
G05
T1
X1.7835Y-1.9685
X1.7874Y-2.2283
X1.7874Y-2.4882
X1.7888Y-2.0079
X1.7888Y-1.9291
X1.7914Y-2.748
X1.7928Y-2.2677
X1.7928Y-2.5276
X1.7928Y-2.189
X1.7928Y-2.4488
X1.7967Y-2.7874
X1.7967Y-2.7087
X2.1403Y-1.9291
X2.1403Y-2.0079
X2.1442Y-2.189
X2.1442Y-2.4488
X2.1442Y-2.2677
X2.1442Y-2.5276
X2.1456Y-1.9685
X2.1482Y-2.7087
X2.1482Y-2.7874
X2.1496Y-2.2283
X2.1496Y-2.4882
X2.1535Y-2.748
T0
M30
