%TF.GenerationSoftware,KiCad,Pcbnew,7.0.7*%
%TF.CreationDate,2023-12-01T17:39:10+08:00*%
%TF.ProjectId,Adafruit LED Sequin-WithRails,41646166-7275-4697-9420-4c4544205365,rev?*%
%TF.SameCoordinates,Original*%
%TF.FileFunction,Paste,Top*%
%TF.FilePolarity,Positive*%
%FSLAX46Y46*%
G04 Gerber Fmt 4.6, Leading zero omitted, Abs format (unit mm)*
G04 Created by KiCad (PCBNEW 7.0.7) date 2023-12-01 17:39:10*
%MOMM*%
%LPD*%
G01*
G04 APERTURE LIST*
%ADD10R,0.500000X0.500000*%
%ADD11R,0.800000X0.600000*%
G04 APERTURE END LIST*
D10*
%TO.C,LED0*%
X51350005Y-62699977D03*
X51350005Y-63599977D03*
X52250005Y-63599977D03*
X52250005Y-62699977D03*
%TD*%
%TO.C,LED0*%
X51250005Y-49499977D03*
X51250005Y-50399977D03*
X52150005Y-50399977D03*
X52150005Y-49499977D03*
%TD*%
%TO.C,LED0*%
X48750005Y-70199977D03*
X48750005Y-69299977D03*
X47850005Y-69299977D03*
X47850005Y-70199977D03*
%TD*%
%TO.C,LED0*%
X48550005Y-50399977D03*
X48550005Y-49499977D03*
X47650005Y-49499977D03*
X47650005Y-50399977D03*
%TD*%
D11*
%TO.C,REF\u002A\u002A*%
X50000000Y-57300000D03*
X50000000Y-55900000D03*
%TD*%
D10*
%TO.C,LED0*%
X48650000Y-56999977D03*
X48650000Y-56099977D03*
X47750000Y-56099977D03*
X47750000Y-56999977D03*
%TD*%
D11*
%TO.C,REF\u002A\u002A*%
X50100005Y-70500000D03*
X50100005Y-69100000D03*
%TD*%
D10*
%TO.C,LED0*%
X51350000Y-56099977D03*
X51350000Y-56999977D03*
X52250000Y-56999977D03*
X52250000Y-56099977D03*
%TD*%
D11*
%TO.C,REF\u002A\u002A*%
X49900005Y-50700000D03*
X49900005Y-49300000D03*
%TD*%
D10*
%TO.C,LED0*%
X51450005Y-69299977D03*
X51450005Y-70199977D03*
X52350005Y-70199977D03*
X52350005Y-69299977D03*
%TD*%
D11*
%TO.C,REF\u002A\u002A*%
X50000005Y-63900000D03*
X50000005Y-62500000D03*
%TD*%
D10*
%TO.C,LED0*%
X48650005Y-63599977D03*
X48650005Y-62699977D03*
X47750005Y-62699977D03*
X47750005Y-63599977D03*
%TD*%
M02*
